<?xml version="1.0" encoding="UTF-8" standalone="yes"?>
<svg xmlns="http://www.w3.org/2000/svg" height="452" width="452">
<script type="text/ecmascript">
      <![CDATA[
        var shown = 1;
        function click() {
             var seq = document.getElementById("seq");
             if (shown==1) {
               seq.setAttribute("style", "visibility: hidden");
               shown = 0;
             } else {
               seq.setAttribute("style", "visibility: visible");
               shown = 1;
             }
         }
        ]]>
</script>
  <rect style="stroke: white; fill: white" height="452" x="0" y="0" width="452" onclick="click(evt)" />
  <g transform="scale(1.658599,1.658599) translate(24.774246,22.807213)">
    <polyline style="stroke: black; fill: none; stroke-width: 1.5" id="outline" points="
      113.489,0.648
      112.806,15.632
      112.123,30.617
      111.440,45.601
      110.758,60.586
      110.075,75.570
      109.392,90.555
      91.484,92.047
      77.126,101.451
      69.373,115.855
      54.470,114.151
      39.567,112.447
      24.664,110.743
      13.596,99.129
      -2.371,100.685
      -10.990,114.216
      -5.647,129.344
      9.557,134.463
      22.960,125.646
      37.863,127.350
      52.766,129.054
      67.669,130.758
      70.672,141.047
      76.853,149.803
      85.543,156.079
      82.157,170.692
      78.772,185.305
      75.387,199.918
      61.367,206.845
      55.127,221.183
      59.614,236.164
      72.708,244.712
      88.227,242.792
      98.844,231.311
      99.545,215.689
      90.000,203.303
      93.385,188.690
      96.770,174.077
      100.156,159.464
      110.241,158.686
      119.846,154.783
      128.006,147.983
      133.849,138.812
      136.695,128.054
      136.127,116.688
      151.092,115.664
      166.057,114.640
      181.022,113.617
      195.987,112.593
      207.733,123.167
      223.511,122.255
      233.960,110.399
      232.882,94.631
      220.915,84.308
      205.160,85.553
      194.963,97.628
      179.998,98.652
      165.033,99.675
      150.068,100.699
      135.103,101.722
      124.377,91.237
      125.059,76.253
      125.742,61.268
      126.425,46.284
      127.108,31.299
      127.790,16.315
      128.473,1.331
      131.538,-17.807
    " />
    <g style="stroke: black; stroke-width: 1" id="pairs">
      <line id="1,67" x1="113.489" y1=" 0.648" x2="128.473" y2=" 1.331" />
      <line id="2,66" x1="112.806" y1="15.632" x2="127.790" y2="16.315" />
      <line id="3,65" x1="112.123" y1="30.617" x2="127.108" y2="31.299" />
      <line id="4,64" x1="111.440" y1="45.601" x2="126.425" y2="46.284" />
      <line id="5,63" x1="110.758" y1="60.586" x2="125.742" y2="61.268" />
      <line id="6,62" x1="110.075" y1="75.570" x2="125.059" y2="76.253" />
      <line id="7,61" x1="109.392" y1="90.555" x2="124.377" y2="91.237" />
      <line id="10,22" x1="69.373" y1="115.855" x2="67.669" y2="130.758" />
      <line id="11,21" x1="54.470" y1="114.151" x2="52.766" y2="129.054" />
      <line id="12,20" x1="39.567" y1="112.447" x2="37.863" y2="127.350" />
      <line id="13,19" x1="24.664" y1="110.743" x2="22.960" y2="125.646" />
      <line id="25,39" x1="85.543" y1="156.079" x2="100.156" y2="159.464" />
      <line id="26,38" x1="82.157" y1="170.692" x2="96.770" y2="174.077" />
      <line id="27,37" x1="78.772" y1="185.305" x2="93.385" y2="188.690" />
      <line id="28,36" x1="75.387" y1="199.918" x2="90.000" y2="203.303" />
      <line id="45,60" x1="136.127" y1="116.688" x2="135.103" y2="101.722" />
      <line id="46,59" x1="151.092" y1="115.664" x2="150.068" y2="100.699" />
      <line id="47,58" x1="166.057" y1="114.640" x2="165.033" y2="99.675" />
      <line id="48,57" x1="181.022" y1="113.617" x2="179.998" y2="98.652" />
      <line id="49,56" x1="195.987" y1="112.593" x2="194.963" y2="97.628" />
    </g>
    <g style="font-family: SansSerif" transform="translate(-4.6, 4)" id="seq">
      <text x="113.489" y="0.648">G</text>
      <text x="112.806" y="15.632">A</text>
      <text x="112.123" y="30.617">G</text>
      <text x="111.440" y="45.601">G</text>
      <text x="110.758" y="60.586">A</text>
      <text x="110.075" y="75.570">U</text>
      <text x="109.392" y="90.555">U</text>
      <text x="91.484" y="92.047">U</text>
      <text x="77.126" y="101.451">A</text>
      <text x="69.373" y="115.855">G</text>
      <text x="54.470" y="114.151">C</text>
      <text x="39.567" y="112.447">U</text>
      <text x="24.664" y="110.743">U</text>
      <text x="13.596" y="99.129">A</text>
      <text x="-2.371" y="100.685">A</text>
      <text x="-10.990" y="114.216">U</text>
      <text x="-5.647" y="129.344">U</text>
      <text x="9.557" y="134.463">A</text>
      <text x="22.960" y="125.646">A</text>
      <text x="37.863" y="127.350">A</text>
      <text x="52.766" y="129.054">G</text>
      <text x="67.669" y="130.758">U</text>
      <text x="70.672" y="141.047">G</text>
      <text x="76.853" y="149.803">U</text>
      <text x="85.543" y="156.079">U</text>
      <text x="82.157" y="170.692">U</text>
      <text x="78.772" y="185.305">G</text>
      <text x="75.387" y="199.918">A</text>
      <text x="61.367" y="206.845">U</text>
      <text x="55.127" y="221.183">U</text>
      <text x="59.614" y="236.164">U</text>
      <text x="72.708" y="244.712">G</text>
      <text x="88.227" y="242.792">C</text>
      <text x="98.844" y="231.311">A</text>
      <text x="99.545" y="215.689">U</text>
      <text x="90.000" y="203.303">U</text>
      <text x="93.385" y="188.690">C</text>
      <text x="96.770" y="174.077">A</text>
      <text x="100.156" y="159.464">A</text>
      <text x="110.241" y="158.686">U</text>
      <text x="119.846" y="154.783">U</text>
      <text x="128.006" y="147.983">G</text>
      <text x="133.849" y="138.812">A</text>
      <text x="136.695" y="128.054">U</text>
      <text x="136.127" y="116.688">G</text>
      <text x="151.092" y="115.664">U</text>
      <text x="166.057" y="114.640">A</text>
      <text x="181.022" y="113.617">G</text>
      <text x="195.987" y="112.593">G</text>
      <text x="207.733" y="123.167">A</text>
      <text x="223.511" y="122.255">U</text>
      <text x="233.960" y="110.399">G</text>
      <text x="232.882" y="94.631">A</text>
      <text x="220.915" y="84.308">A</text>
      <text x="205.160" y="85.553">U</text>
      <text x="194.963" y="97.628">C</text>
      <text x="179.998" y="98.652">C</text>
      <text x="165.033" y="99.675">U</text>
      <text x="150.068" y="100.699">G</text>
      <text x="135.103" y="101.722">C</text>
      <text x="124.377" y="91.237">A</text>
      <text x="125.059" y="76.253">G</text>
      <text x="125.742" y="61.268">U</text>
      <text x="126.425" y="46.284">C</text>
      <text x="127.108" y="31.299">C</text>
      <text x="127.790" y="16.315">U</text>
      <text x="128.473" y="1.331">U</text>
      <text x="131.538" y="-17.807">A</text>
    </g>
  </g>
</svg>
