<?xml version="1.0" encoding="UTF-8" standalone="yes"?>
<svg xmlns="http://www.w3.org/2000/svg" height="452" width="452">
<script type="text/ecmascript">
      <![CDATA[
        var shown = 1;
        function click() {
             var seq = document.getElementById("seq");
             if (shown==1) {
               seq.setAttribute("style", "visibility: hidden");
               shown = 0;
             } else {
               seq.setAttribute("style", "visibility: visible");
               shown = 1;
             }
         }
        ]]>
</script>
  <rect style="stroke: white; fill: white" height="452" x="0" y="0" width="452" onclick="click(evt)" />
  <g transform="scale(1.647661,1.647661) translate(11.372375,26.591064)">
    <polyline style="stroke: black; fill: none; stroke-width: 1.5" id="outline" points="
      113.604,-3.148
      112.911,11.836
      112.218,26.820
      111.525,41.804
      110.833,56.788
      110.140,71.772
      109.447,86.756
      93.742,87.757
      80.760,95.232
      72.857,107.057
      58.255,103.623
      43.653,100.189
      32.083,88.567
      16.305,93.038
      12.550,109.001
      24.682,120.036
      40.219,114.790
      54.821,118.225
      69.422,121.659
      72.317,134.142
      80.071,144.343
      73.385,157.770
      66.699,171.198
      60.013,184.625
      53.327,198.053
      38.082,201.535
      28.683,214.033
      29.568,229.645
      40.320,241.001
      55.860,242.737
      68.853,234.035
      73.162,219.003
      66.754,204.739
      73.440,191.311
      80.126,177.884
      86.812,164.456
      93.498,151.029
      103.770,152.348
      114.177,150.142
      123.511,144.478
      130.631,135.833
      134.597,125.058
      134.790,113.297
      149.790,113.297
      164.790,113.297
      179.790,113.297
      194.790,113.297
      204.702,125.392
      220.079,128.235
      233.660,120.483
      239.033,105.797
      233.660,91.112
      220.079,83.360
      204.702,86.203
      194.790,98.297
      179.790,98.297
      164.790,98.297
      149.790,98.297
      134.790,98.297
      124.431,87.449
      125.124,72.465
      125.817,57.481
      126.509,42.497
      127.202,27.513
      127.895,12.529
      128.588,-2.455
      131.665,-21.591
    " />
    <g style="stroke: black; stroke-width: 1" id="pairs">
      <line id="1,66" x1="113.604" y1="-3.148" x2="128.588" y2="-2.455" />
      <line id="2,65" x1="112.911" y1="11.836" x2="127.895" y2="12.529" />
      <line id="3,64" x1="112.218" y1="26.820" x2="127.202" y2="27.513" />
      <line id="4,63" x1="111.525" y1="41.804" x2="126.509" y2="42.497" />
      <line id="5,62" x1="110.833" y1="56.788" x2="125.817" y2="57.481" />
      <line id="6,61" x1="110.140" y1="71.772" x2="125.124" y2="72.465" />
      <line id="7,60" x1="109.447" y1="86.756" x2="124.431" y2="87.449" />
      <line id="10,19" x1="72.857" y1="107.057" x2="69.422" y2="121.659" />
      <line id="11,18" x1="58.255" y1="103.623" x2="54.821" y2="118.225" />
      <line id="12,17" x1="43.653" y1="100.189" x2="40.219" y2="114.790" />
      <line id="21,37" x1="80.071" y1="144.343" x2="93.498" y2="151.029" />
      <line id="22,36" x1="73.385" y1="157.770" x2="86.812" y2="164.456" />
      <line id="23,35" x1="66.699" y1="171.198" x2="80.126" y2="177.884" />
      <line id="24,34" x1="60.013" y1="184.625" x2="73.440" y2="191.311" />
      <line id="25,33" x1="53.327" y1="198.053" x2="66.754" y2="204.739" />
      <line id="43,59" x1="134.790" y1="113.297" x2="134.790" y2="98.297" />
      <line id="44,58" x1="149.790" y1="113.297" x2="149.790" y2="98.297" />
      <line id="45,57" x1="164.790" y1="113.297" x2="164.790" y2="98.297" />
      <line id="46,56" x1="179.790" y1="113.297" x2="179.790" y2="98.297" />
      <line id="47,55" x1="194.790" y1="113.297" x2="194.790" y2="98.297" />
    </g>
    <g style="font-family: SansSerif" transform="translate(-4.6, 4)" id="seq">
      <text x="113.604" y="-3.148">C</text>
      <text x="112.911" y="11.836">A</text>
      <text x="112.218" y="26.820">U</text>
      <text x="111.525" y="41.804">U</text>
      <text x="110.833" y="56.788">G</text>
      <text x="110.140" y="71.772">A</text>
      <text x="109.447" y="86.756">G</text>
      <text x="93.742" y="87.757">A</text>
      <text x="80.760" y="95.232">A</text>
      <text x="72.857" y="107.057">G</text>
      <text x="58.255" y="103.623">C</text>
      <text x="43.653" y="100.189">U</text>
      <text x="32.083" y="88.567">A</text>
      <text x="16.305" y="93.038">G</text>
      <text x="12.550" y="109.001">U</text>
      <text x="24.682" y="120.036">C</text>
      <text x="40.219" y="114.790">A</text>
      <text x="54.821" y="118.225">G</text>
      <text x="69.422" y="121.659">C</text>
      <text x="72.317" y="134.142">A</text>
      <text x="80.071" y="144.343">C</text>
      <text x="73.385" y="157.770">U</text>
      <text x="66.699" y="171.198">A</text>
      <text x="60.013" y="184.625">A</text>
      <text x="53.327" y="198.053">C</text>
      <text x="38.082" y="201.535">C</text>
      <text x="28.683" y="214.033">U</text>
      <text x="29.568" y="229.645">U</text>
      <text x="40.320" y="241.001">U</text>
      <text x="55.860" y="242.737">U</text>
      <text x="68.853" y="234.035">A</text>
      <text x="73.162" y="219.003">A</text>
      <text x="66.754" y="204.739">G</text>
      <text x="73.440" y="191.311">U</text>
      <text x="80.126" y="177.884">U</text>
      <text x="86.812" y="164.456">A</text>
      <text x="93.498" y="151.029">G</text>
      <text x="103.770" y="152.348">A</text>
      <text x="114.177" y="150.142">G</text>
      <text x="123.511" y="144.478">A</text>
      <text x="130.631" y="135.833">U</text>
      <text x="134.597" y="125.058">C</text>
      <text x="134.790" y="113.297">G</text>
      <text x="149.790" y="113.297">G</text>
      <text x="164.790" y="113.297">G</text>
      <text x="179.790" y="113.297">A</text>
      <text x="194.790" y="113.297">G</text>
      <text x="204.702" y="125.392">C</text>
      <text x="220.079" y="128.235">C</text>
      <text x="233.660" y="120.483">U</text>
      <text x="239.033" y="105.797">A</text>
      <text x="233.660" y="91.112">A</text>
      <text x="220.079" y="83.360">A</text>
      <text x="204.702" y="86.203">U</text>
      <text x="194.790" y="98.297">C</text>
      <text x="179.790" y="98.297">U</text>
      <text x="164.790" y="98.297">C</text>
      <text x="149.790" y="98.297">C</text>
      <text x="134.790" y="98.297">C</text>
      <text x="124.431" y="87.449">C</text>
      <text x="125.124" y="72.465">U</text>
      <text x="125.817" y="57.481">C</text>
      <text x="126.509" y="42.497">A</text>
      <text x="127.202" y="27.513">A</text>
      <text x="127.895" y="12.529">U</text>
      <text x="128.588" y="-2.455">G</text>
      <text x="131.665" y="-21.591">G</text>
    </g>
  </g>
</svg>
