<?xml version="1.0" encoding="UTF-8" standalone="yes"?>
<svg xmlns="http://www.w3.org/2000/svg" height="452" width="452">
<script type="text/ecmascript">
      <![CDATA[
        var shown = 1;
        function click() {
             var seq = document.getElementById("seq");
             if (shown==1) {
               seq.setAttribute("style", "visibility: hidden");
               shown = 0;
             } else {
               seq.setAttribute("style", "visibility: visible");
               shown = 1;
             }
         }
        ]]>
</script>
  <rect style="stroke: white; fill: white" height="452" x="0" y="0" width="452" onclick="click(evt)" />
  <g transform="scale(1.594920,1.594920) translate(39.822861,33.688622)">
    <polyline style="stroke: black; fill: none; stroke-width: 1.5" id="outline" points="
      110.197,-10.158
      109.578,4.829
      108.958,19.816
      108.338,34.804
      107.718,49.791
      107.098,64.778
      106.478,79.765
      89.252,82.669
      76.139,92.860
      69.778,107.266
      54.790,106.646
      39.803,106.026
      24.816,105.407
      17.764,91.762
      4.826,83.486
      -10.518,82.803
      -24.140,89.898
      -32.376,102.861
      -33.011,118.207
      -25.873,131.807
      -12.884,140.002
      2.464,140.589
      16.041,133.409
      24.196,120.394
      39.183,121.014
      54.170,121.633
      69.158,122.253
      76.415,136.851
      90.002,145.857
      88.763,160.806
      87.525,175.755
      86.286,190.704
      72.615,197.853
      65.000,211.270
      65.870,226.673
      74.948,239.147
      89.337,244.711
      104.445,241.591
      115.452,230.781
      118.846,215.732
      113.542,201.244
      101.235,191.942
      102.474,176.994
      103.712,162.045
      104.951,147.096
      113.889,145.250
      122.156,140.820
      129.005,134.046
      133.770,125.383
      135.933,115.476
      135.178,105.109
      149.973,102.640
      164.769,100.172
      179.564,97.703
      194.359,95.234
      206.127,105.532
      221.763,105.805
      233.883,95.923
      236.765,80.554
      229.048,66.953
      214.376,61.542
      199.677,66.877
      191.891,80.438
      177.095,82.907
      162.300,85.376
      147.504,87.845
      132.709,90.314
      121.465,80.385
      122.085,65.398
      122.705,50.411
      123.325,35.423
      123.945,20.436
      124.565,5.449
      125.185,-9.538
      128.169,-28.689
    " />
    <g style="stroke: black; stroke-width: 1" id="pairs">
      <line id="1,74" x1="110.197" y1="-10.158" x2="125.185" y2="-9.538" />
      <line id="2,73" x1="109.578" y1=" 4.829" x2="124.565" y2=" 5.449" />
      <line id="3,72" x1="108.958" y1="19.816" x2="123.945" y2="20.436" />
      <line id="4,71" x1="108.338" y1="34.804" x2="123.325" y2="35.423" />
      <line id="5,70" x1="107.718" y1="49.791" x2="122.705" y2="50.411" />
      <line id="6,69" x1="107.098" y1="64.778" x2="122.085" y2="65.398" />
      <line id="7,68" x1="106.478" y1="79.765" x2="121.465" y2="80.385" />
      <line id="10,27" x1="69.778" y1="107.266" x2="69.158" y2="122.253" />
      <line id="11,26" x1="54.790" y1="106.646" x2="54.170" y2="121.633" />
      <line id="12,25" x1="39.803" y1="106.026" x2="39.183" y2="121.014" />
      <line id="13,24" x1="24.816" y1="105.407" x2="24.196" y2="120.394" />
      <line id="29,45" x1="90.002" y1="145.857" x2="104.951" y2="147.096" />
      <line id="30,44" x1="88.763" y1="160.806" x2="103.712" y2="162.045" />
      <line id="31,43" x1="87.525" y1="175.755" x2="102.474" y2="176.994" />
      <line id="32,42" x1="86.286" y1="190.704" x2="101.235" y2="191.942" />
      <line id="51,67" x1="135.178" y1="105.109" x2="132.709" y2="90.314" />
      <line id="52,66" x1="149.973" y1="102.640" x2="147.504" y2="87.845" />
      <line id="53,65" x1="164.769" y1="100.172" x2="162.300" y2="85.376" />
      <line id="54,64" x1="179.564" y1="97.703" x2="177.095" y2="82.907" />
      <line id="55,63" x1="194.359" y1="95.234" x2="191.891" y2="80.438" />
    </g>
    <g style="font-family: SansSerif" transform="translate(-4.6, 4)" id="seq">
      <text x="110.197" y="-10.158">A</text>
      <text x="109.578" y="4.829">U</text>
      <text x="108.958" y="19.816">U</text>
      <text x="108.338" y="34.804">A</text>
      <text x="107.718" y="49.791">G</text>
      <text x="107.098" y="64.778">G</text>
      <text x="106.478" y="79.765">G</text>
      <text x="89.252" y="82.669">U</text>
      <text x="76.139" y="92.860">G</text>
      <text x="69.778" y="107.266">G</text>
      <text x="54.790" y="106.646">C</text>
      <text x="39.803" y="106.026">A</text>
      <text x="24.816" y="105.407">G</text>
      <text x="17.764" y="91.762">A</text>
      <text x="4.826" y="83.486">G</text>
      <text x="-10.518" y="82.803">A</text>
      <text x="-24.140" y="89.898">C</text>
      <text x="-32.376" y="102.861">C</text>
      <text x="-33.011" y="118.207">G</text>
      <text x="-25.873" y="131.807">G</text>
      <text x="-12.884" y="140.002">U</text>
      <text x="2.464" y="140.589">A</text>
      <text x="16.041" y="133.409">A</text>
      <text x="24.196" y="120.394">U</text>
      <text x="39.183" y="121.014">U</text>
      <text x="54.170" y="121.633">G</text>
      <text x="69.158" y="122.253">C</text>
      <text x="76.415" y="136.851">G</text>
      <text x="90.002" y="145.857">U</text>
      <text x="88.763" y="160.806">A</text>
      <text x="87.525" y="175.755">A</text>
      <text x="86.286" y="190.704">A</text>
      <text x="72.615" y="197.853">A</text>
      <text x="65.000" y="211.270">C</text>
      <text x="65.870" y="226.673">U</text>
      <text x="74.948" y="239.147">U</text>
      <text x="89.337" y="244.711">A</text>
      <text x="104.445" y="241.591">A</text>
      <text x="115.452" y="230.781">A</text>
      <text x="118.846" y="215.732">C</text>
      <text x="113.542" y="201.244">C</text>
      <text x="101.235" y="191.942">U</text>
      <text x="102.474" y="176.994">U</text>
      <text x="103.712" y="162.045">U</text>
      <text x="104.951" y="147.096">A</text>
      <text x="113.889" y="145.250">U</text>
      <text x="122.156" y="140.820">U</text>
      <text x="129.005" y="134.046">A</text>
      <text x="133.770" y="125.383">C</text>
      <text x="135.933" y="115.476">C</text>
      <text x="135.178" y="105.109">A</text>
      <text x="149.973" y="102.640">G</text>
      <text x="164.769" y="100.172">A</text>
      <text x="179.564" y="97.703">G</text>
      <text x="194.359" y="95.234">G</text>
      <text x="206.127" y="105.532">U</text>
      <text x="221.763" y="105.805">U</text>
      <text x="233.883" y="95.923">C</text>
      <text x="236.765" y="80.554">A</text>
      <text x="229.048" y="66.953">A</text>
      <text x="214.376" y="61.542">C</text>
      <text x="199.677" y="66.877">U</text>
      <text x="191.891" y="80.438">C</text>
      <text x="177.095" y="82.907">C</text>
      <text x="162.300" y="85.376">U</text>
      <text x="147.504" y="87.845">C</text>
      <text x="132.709" y="90.314">U</text>
      <text x="121.465" y="80.385">C</text>
      <text x="122.085" y="65.398">C</text>
      <text x="122.705" y="50.411">C</text>
      <text x="123.325" y="35.423">U</text>
      <text x="123.945" y="20.436">A</text>
      <text x="124.565" y="5.449">A</text>
      <text x="125.185" y="-9.538">U</text>
      <text x="128.169" y="-28.689">A</text>
    </g>
  </g>
</svg>
