<?xml version="1.0" encoding="UTF-8" standalone="yes"?>
<svg xmlns="http://www.w3.org/2000/svg" height="452" width="452">
<script type="text/ecmascript">
      <![CDATA[
        var shown = 1;
        function click() {
             var seq = document.getElementById("seq");
             if (shown==1) {
               seq.setAttribute("style", "visibility: hidden");
               shown = 0;
             } else {
               seq.setAttribute("style", "visibility: visible");
               shown = 1;
             }
         }
        ]]>
</script>
  <rect style="stroke: white; fill: white" height="452" x="0" y="0" width="452" onclick="click(evt)" />
  <g transform="scale(1.550022,1.550022) translate(45.804390,42.969887)">
    <polyline style="stroke: black; fill: none; stroke-width: 1.5" id="outline" points="
      98.034,-19.492
      97.371,-4.506
      96.707,10.479
      96.044,25.464
      95.380,40.450
      94.717,55.435
      94.053,70.420
      81.547,75.053
      71.609,83.949
      65.623,95.867
      50.656,94.873
      35.689,93.878
      20.722,92.883
      11.634,80.158
      -3.521,76.301
      -17.586,83.135
      -23.921,97.432
      -19.534,112.442
      -6.497,121.077
      9.035,119.260
      19.727,107.850
      34.694,108.845
      49.661,109.840
      64.628,110.834
      72.336,128.308
      87.940,139.320
      85.955,154.188
      83.969,169.056
      81.984,183.924
      79.999,198.792
      66.699,207.017
      61.846,221.882
      67.732,236.370
      81.577,243.639
      96.845,240.257
      106.326,227.822
      105.543,212.203
      94.867,200.778
      96.852,185.910
      98.837,171.041
      100.823,156.173
      102.808,141.305
      112.193,139.272
      120.697,134.815
      127.709,128.254
      132.721,120.063
      135.372,110.834
      150.339,109.840
      165.306,108.845
      180.273,107.850
      190.965,119.260
      206.497,121.077
      219.534,112.442
      223.921,97.432
      217.586,83.135
      203.521,76.301
      188.366,80.158
      179.278,92.883
      164.311,93.878
      149.344,94.873
      134.377,95.867
      124.996,80.114
      109.039,71.084
      109.702,56.098
      110.366,41.113
      111.029,26.128
      111.693,11.142
      112.356,-3.843
      113.020,-18.828
      116.060,-37.970
    " />
    <g style="stroke: black; stroke-width: 1" id="pairs">
      <line id="1,69" x1="98.034" y1="-19.492" x2="113.020" y2="-18.828" />
      <line id="2,68" x1="97.371" y1="-4.506" x2="112.356" y2="-3.843" />
      <line id="3,67" x1="96.707" y1="10.479" x2="111.693" y2="11.142" />
      <line id="4,66" x1="96.044" y1="25.464" x2="111.029" y2="26.128" />
      <line id="5,65" x1="95.380" y1="40.450" x2="110.366" y2="41.113" />
      <line id="6,64" x1="94.717" y1="55.435" x2="109.702" y2="56.098" />
      <line id="7,63" x1="94.053" y1="70.420" x2="109.039" y2="71.084" />
      <line id="10,24" x1="65.623" y1="95.867" x2="64.628" y2="110.834" />
      <line id="11,23" x1="50.656" y1="94.873" x2="49.661" y2="109.840" />
      <line id="12,22" x1="35.689" y1="93.878" x2="34.694" y2="108.845" />
      <line id="13,21" x1="20.722" y1="92.883" x2="19.727" y2="107.850" />
      <line id="26,42" x1="87.940" y1="139.320" x2="102.808" y2="141.305" />
      <line id="27,41" x1="85.955" y1="154.188" x2="100.823" y2="156.173" />
      <line id="28,40" x1="83.969" y1="169.056" x2="98.837" y2="171.041" />
      <line id="29,39" x1="81.984" y1="183.924" x2="96.852" y2="185.910" />
      <line id="30,38" x1="79.999" y1="198.792" x2="94.867" y2="200.778" />
      <line id="47,61" x1="135.372" y1="110.834" x2="134.377" y2="95.867" />
      <line id="48,60" x1="150.339" y1="109.840" x2="149.344" y2="94.873" />
      <line id="49,59" x1="165.306" y1="108.845" x2="164.311" y2="93.878" />
      <line id="50,58" x1="180.273" y1="107.850" x2="179.278" y2="92.883" />
    </g>
    <g style="font-family: SansSerif" transform="translate(-4.6, 4)" id="seq">
      <text x="98.034" y="-19.492">A</text>
      <text x="97.371" y="-4.506">C</text>
      <text x="96.707" y="10.479">U</text>
      <text x="96.044" y="25.464">U</text>
      <text x="95.380" y="40.450">U</text>
      <text x="94.717" y="55.435">U</text>
      <text x="94.053" y="70.420">A</text>
      <text x="81.547" y="75.053">A</text>
      <text x="71.609" y="83.949">A</text>
      <text x="65.623" y="95.867">G</text>
      <text x="50.656" y="94.873">G</text>
      <text x="35.689" y="93.878">A</text>
      <text x="20.722" y="92.883">U</text>
      <text x="11.634" y="80.158">A</text>
      <text x="-3.521" y="76.301">G</text>
      <text x="-17.586" y="83.135">C</text>
      <text x="-23.921" y="97.432">A</text>
      <text x="-19.534" y="112.442">G</text>
      <text x="-6.497" y="121.077">U</text>
      <text x="9.035" y="119.260">U</text>
      <text x="19.727" y="107.850">A</text>
      <text x="34.694" y="108.845">U</text>
      <text x="49.661" y="109.840">C</text>
      <text x="64.628" y="110.834">C</text>
      <text x="72.336" y="128.308">G</text>
      <text x="87.940" y="139.320">U</text>
      <text x="85.955" y="154.188">U</text>
      <text x="83.969" y="169.056">G</text>
      <text x="81.984" y="183.924">G</text>
      <text x="79.999" y="198.792">U</text>
      <text x="66.699" y="207.017">C</text>
      <text x="61.846" y="221.882">U</text>
      <text x="67.732" y="236.370">U</text>
      <text x="81.577" y="243.639">A</text>
      <text x="96.845" y="240.257">G</text>
      <text x="106.326" y="227.822">G</text>
      <text x="105.543" y="212.203">A</text>
      <text x="94.867" y="200.778">A</text>
      <text x="96.852" y="185.910">C</text>
      <text x="98.837" y="171.041">C</text>
      <text x="100.823" y="156.173">A</text>
      <text x="102.808" y="141.305">A</text>
      <text x="112.193" y="139.272">A</text>
      <text x="120.697" y="134.815">A</text>
      <text x="127.709" y="128.254">A</text>
      <text x="132.721" y="120.063">A</text>
      <text x="135.372" y="110.834">U</text>
      <text x="150.339" y="109.840">U</text>
      <text x="165.306" y="108.845">G</text>
      <text x="180.273" y="107.850">G</text>
      <text x="190.965" y="119.260">U</text>
      <text x="206.497" y="121.077">G</text>
      <text x="219.534" y="112.442">C</text>
      <text x="223.921" y="97.432">A</text>
      <text x="217.586" y="83.135">A</text>
      <text x="203.521" y="76.301">C</text>
      <text x="188.366" y="80.158">U</text>
      <text x="179.278" y="92.883">C</text>
      <text x="164.311" y="93.878">C</text>
      <text x="149.344" y="94.873">A</text>
      <text x="134.377" y="95.867">A</text>
      <text x="124.996" y="80.114">A</text>
      <text x="109.039" y="71.084">U</text>
      <text x="109.702" y="56.098">A</text>
      <text x="110.366" y="41.113">A</text>
      <text x="111.029" y="26.128">A</text>
      <text x="111.693" y="11.142">A</text>
      <text x="112.356" y="-3.843">G</text>
      <text x="113.020" y="-18.828">U</text>
      <text x="116.060" y="-37.970">A</text>
    </g>
  </g>
</svg>
