<?xml version="1.0" encoding="UTF-8" standalone="yes"?>
<svg xmlns="http://www.w3.org/2000/svg" height="452" width="452">
<script type="text/ecmascript">
      <![CDATA[
        var shown = 1;
        function click() {
             var seq = document.getElementById("seq");
             if (shown==1) {
               seq.setAttribute("style", "visibility: hidden");
               shown = 0;
             } else {
               seq.setAttribute("style", "visibility: visible");
               shown = 1;
             }
         }
        ]]>
</script>
  <rect style="stroke: white; fill: white" height="452" x="0" y="0" width="452" onclick="click(evt)" />
  <g transform="scale(1.615426,1.615426) translate(31.304031,35.236816)">
    <polyline style="stroke: black; fill: none; stroke-width: 1.5" id="outline" points="
      111.588,-11.759
      110.925,3.227
      110.261,18.212
      109.598,33.197
      101.305,45.570
      108.424,59.699
      107.761,74.684
      91.454,76.696
      78.622,85.567
      71.759,98.646
      56.851,96.990
      41.943,95.334
      27.034,93.678
      17.358,81.182
      1.670,79.272
      -10.723,89.080
      -12.468,104.787
      -2.529,117.076
      13.196,118.654
      25.379,108.586
      40.287,110.242
      55.195,111.898
      70.104,113.554
      75.417,126.859
      86.265,136.217
      82.973,150.852
      79.682,165.486
      76.390,180.120
      73.099,194.755
      59.124,201.772
      52.976,216.150
      57.558,231.101
      70.707,239.565
      86.214,237.546
      96.757,225.997
      97.358,210.371
      87.733,198.046
      91.024,183.412
      94.316,168.778
      97.608,154.143
      100.899,139.509
      111.781,138.279
      121.867,133.124
      129.746,124.473
      134.217,113.253
      134.464,100.803
      146.296,110.935
      161.460,109.713
      171.047,98.372
      186.014,97.377
      196.706,108.787
      212.238,110.604
      225.275,101.969
      229.662,86.959
      223.327,72.662
      209.262,65.828
      194.107,69.684
      185.019,82.410
      170.052,83.405
      159.048,73.432
      143.856,74.227
      133.469,85.836
      122.746,75.348
      123.410,60.362
      131.750,46.918
      124.583,33.861
      125.247,18.876
      125.910,3.890
      126.574,-11.095
      129.614,-30.237
    " />
    <g style="stroke: black; stroke-width: 1" id="pairs">
      <line id="1,69" x1="111.588" y1="-11.759" x2="126.574" y2="-11.095" />
      <line id="2,68" x1="110.925" y1=" 3.227" x2="125.910" y2=" 3.890" />
      <line id="3,67" x1="110.261" y1="18.212" x2="125.247" y2="18.876" />
      <line id="4,66" x1="109.598" y1="33.197" x2="124.583" y2="33.861" />
      <line id="6,64" x1="108.424" y1="59.699" x2="123.410" y2="60.362" />
      <line id="7,63" x1="107.761" y1="74.684" x2="122.746" y2="75.348" />
      <line id="10,23" x1="71.759" y1="98.646" x2="70.104" y2="113.554" />
      <line id="11,22" x1="56.851" y1="96.990" x2="55.195" y2="111.898" />
      <line id="12,21" x1="41.943" y1="95.334" x2="40.287" y2="110.242" />
      <line id="13,20" x1="27.034" y1="93.678" x2="25.379" y2="108.586" />
      <line id="25,41" x1="86.265" y1="136.217" x2="100.899" y2="139.509" />
      <line id="26,40" x1="82.973" y1="150.852" x2="97.608" y2="154.143" />
      <line id="27,39" x1="79.682" y1="165.486" x2="94.316" y2="168.778" />
      <line id="28,38" x1="76.390" y1="180.120" x2="91.024" y2="183.412" />
      <line id="29,37" x1="73.099" y1="194.755" x2="87.733" y2="198.046" />
      <line id="46,62" x1="134.464" y1="100.803" x2="133.469" y2="85.836" />
      <line id="49,59" x1="171.047" y1="98.372" x2="170.052" y2="83.405" />
      <line id="50,58" x1="186.014" y1="97.377" x2="185.019" y2="82.410" />
    </g>
    <g style="font-family: SansSerif" transform="translate(-4.6, 4)" id="seq">
      <text x="111.588" y="-11.759">A</text>
      <text x="110.925" y="3.227">G</text>
      <text x="110.261" y="18.212">U</text>
      <text x="109.598" y="33.197">A</text>
      <text x="101.305" y="45.570">A</text>
      <text x="108.424" y="59.699">G</text>
      <text x="107.761" y="74.684">G</text>
      <text x="91.454" y="76.696">U</text>
      <text x="78.622" y="85.567">C</text>
      <text x="71.759" y="98.646">A</text>
      <text x="56.851" y="96.990">G</text>
      <text x="41.943" y="95.334">C</text>
      <text x="27.034" y="93.678">U</text>
      <text x="17.358" y="81.182">A</text>
      <text x="1.670" y="79.272">A</text>
      <text x="-10.723" y="89.080">G</text>
      <text x="-12.468" y="104.787">C</text>
      <text x="-2.529" y="117.076">U</text>
      <text x="13.196" y="118.654">A</text>
      <text x="25.379" y="108.586">A</text>
      <text x="40.287" y="110.242">G</text>
      <text x="55.195" y="111.898">C</text>
      <text x="70.104" y="113.554">U</text>
      <text x="75.417" y="126.859">A</text>
      <text x="86.265" y="136.217">U</text>
      <text x="82.973" y="150.852">C</text>
      <text x="79.682" y="165.486">G</text>
      <text x="76.390" y="180.120">G</text>
      <text x="73.099" y="194.755">G</text>
      <text x="59.124" y="201.772">C</text>
      <text x="52.976" y="216.150">C</text>
      <text x="57.558" y="231.101">C</text>
      <text x="70.707" y="239.565">A</text>
      <text x="86.214" y="237.546">U</text>
      <text x="96.757" y="225.997">A</text>
      <text x="97.358" y="210.371">C</text>
      <text x="87.733" y="198.046">C</text>
      <text x="91.024" y="183.412">C</text>
      <text x="94.316" y="168.778">C</text>
      <text x="97.608" y="154.143">G</text>
      <text x="100.899" y="139.509">A</text>
      <text x="111.781" y="138.279">A</text>
      <text x="121.867" y="133.124">A</text>
      <text x="129.746" y="124.473">A</text>
      <text x="134.217" y="113.253">U</text>
      <text x="134.464" y="100.803">G</text>
      <text x="146.296" y="110.935">U</text>
      <text x="161.460" y="109.713">U</text>
      <text x="171.047" y="98.372">G</text>
      <text x="186.014" y="97.377">G</text>
      <text x="196.706" y="108.787">U</text>
      <text x="212.238" y="110.604">U</text>
      <text x="225.275" y="101.969">C</text>
      <text x="229.662" y="86.959">A</text>
      <text x="223.327" y="72.662">U</text>
      <text x="209.262" y="65.828">A</text>
      <text x="194.107" y="69.684">C</text>
      <text x="185.019" y="82.410">C</text>
      <text x="170.052" y="83.405">C</text>
      <text x="159.048" y="73.432">U</text>
      <text x="143.856" y="74.227">U</text>
      <text x="133.469" y="85.836">C</text>
      <text x="122.746" y="75.348">C</text>
      <text x="123.410" y="60.362">C</text>
      <text x="131.750" y="46.918">A</text>
      <text x="124.583" y="33.861">U</text>
      <text x="125.247" y="18.876">A</text>
      <text x="125.910" y="3.890">C</text>
      <text x="126.574" y="-11.095">U</text>
      <text x="129.614" y="-30.237">A</text>
    </g>
  </g>
</svg>
