<?xml version="1.0" encoding="UTF-8" standalone="yes"?>
<svg xmlns="http://www.w3.org/2000/svg" height="452" width="452">
<script type="text/ecmascript">
      <![CDATA[
        var shown = 1;
        function click() {
             var seq = document.getElementById("seq");
             if (shown==1) {
               seq.setAttribute("style", "visibility: hidden");
               shown = 0;
             } else {
               seq.setAttribute("style", "visibility: visible");
               shown = 1;
             }
         }
        ]]>
</script>
  <rect style="stroke: white; fill: white" height="452" x="0" y="0" width="452" onclick="click(evt)" />
  <g transform="scale(1.793340,1.793340) translate(7.688217,-1.955040)">
    <polyline style="stroke: black; fill: none; stroke-width: 1.5" id="outline" points="
      116.207,36.785
      115.422,51.765
      114.637,66.744
      113.852,81.724
      113.067,96.703
      112.282,111.682
      111.497,126.662
      99.784,125.312
      88.716,128.354
      79.834,135.123
      74.286,144.454
      72.678,154.875
      75.013,164.837
      59.301,166.689
      53.552,180.430
      41.417,189.246
      27.078,183.553
      11.943,186.539
      0.839,197.250
      -2.688,212.268
      2.485,226.802
      14.709,236.214
      30.083,237.500
      43.701,230.250
      51.217,216.778
      50.234,201.382
      62.369,192.565
      77.213,191.344
      83.830,176.972
      94.576,182.922
      107.294,183.503
      119.357,178.199
      128.102,167.750
      131.411,154.071
      145.900,157.953
      160.389,161.836
      174.878,165.718
      189.367,169.600
      194.802,184.134
      207.760,192.670
      223.259,191.925
      235.339,182.186
      239.355,167.198
      233.763,152.724
      220.713,144.329
      205.223,145.242
      193.249,155.111
      178.760,151.229
      164.271,147.347
      149.782,143.464
      135.293,139.582
      126.477,127.447
      127.262,112.467
      128.047,97.488
      128.832,82.509
      129.617,67.529
      130.402,52.550
      131.187,37.570
      134.383,18.454
    " />
    <g style="stroke: black; stroke-width: 1" id="pairs">
      <line id="1,58" x1="116.207" y1="36.785" x2="131.187" y2="37.570" />
      <line id="2,57" x1="115.422" y1="51.765" x2="130.402" y2="52.550" />
      <line id="3,56" x1="114.637" y1="66.744" x2="129.617" y2="67.529" />
      <line id="4,55" x1="113.852" y1="81.724" x2="128.832" y2="82.509" />
      <line id="5,54" x1="113.067" y1="96.703" x2="128.047" y2="97.488" />
      <line id="6,53" x1="112.282" y1="111.682" x2="127.262" y2="112.467" />
      <line id="7,52" x1="111.497" y1="126.662" x2="126.477" y2="127.447" />
      <line id="13,29" x1="75.013" y1="164.837" x2="83.830" y2="176.972" />
      <line id="15,27" x1="53.552" y1="180.430" x2="62.369" y2="192.565" />
      <line id="16,26" x1="41.417" y1="189.246" x2="50.234" y2="201.382" />
      <line id="34,51" x1="131.411" y1="154.071" x2="135.293" y2="139.582" />
      <line id="35,50" x1="145.900" y1="157.953" x2="149.782" y2="143.464" />
      <line id="36,49" x1="160.389" y1="161.836" x2="164.271" y2="147.347" />
      <line id="37,48" x1="174.878" y1="165.718" x2="178.760" y2="151.229" />
      <line id="38,47" x1="189.367" y1="169.600" x2="193.249" y2="155.111" />
    </g>
    <g style="font-family: SansSerif" transform="translate(-4.6, 4)" id="seq">
      <text x="116.207" y="36.785">G</text>
      <text x="115.422" y="51.765">A</text>
      <text x="114.637" y="66.744">A</text>
      <text x="113.852" y="81.724">A</text>
      <text x="113.067" y="96.703">A</text>
      <text x="112.282" y="111.682">A</text>
      <text x="111.497" y="126.662">G</text>
      <text x="99.784" y="125.312">U</text>
      <text x="88.716" y="128.354">U</text>
      <text x="79.834" y="135.123">U</text>
      <text x="74.286" y="144.454">G</text>
      <text x="72.678" y="154.875">C</text>
      <text x="75.013" y="164.837">A</text>
      <text x="59.301" y="166.689">A</text>
      <text x="53.552" y="180.430">G</text>
      <text x="41.417" y="189.246">A</text>
      <text x="27.078" y="183.553">A</text>
      <text x="11.943" y="186.539">C</text>
      <text x="0.839" y="197.250">U</text>
      <text x="-2.688" y="212.268">G</text>
      <text x="2.485" y="226.802">C</text>
      <text x="14.709" y="236.214">U</text>
      <text x="30.083" y="237.500">A</text>
      <text x="43.701" y="230.250">A</text>
      <text x="51.217" y="216.778">C</text>
      <text x="50.234" y="201.382">U</text>
      <text x="62.369" y="192.565">C</text>
      <text x="77.213" y="191.344">A</text>
      <text x="83.830" y="176.972">U</text>
      <text x="94.576" y="182.922">G</text>
      <text x="107.294" y="183.503">C</text>
      <text x="119.357" y="178.199">U</text>
      <text x="128.102" y="167.750">U</text>
      <text x="131.411" y="154.071">C</text>
      <text x="145.900" y="157.953">C</text>
      <text x="160.389" y="161.836">A</text>
      <text x="174.878" y="165.718">C</text>
      <text x="189.367" y="169.600">A</text>
      <text x="194.802" y="184.134">C</text>
      <text x="207.760" y="192.670">U</text>
      <text x="223.259" y="191.925">U</text>
      <text x="235.339" y="182.186">A</text>
      <text x="239.355" y="167.198">A</text>
      <text x="233.763" y="152.724">A</text>
      <text x="220.713" y="144.329">A</text>
      <text x="205.223" y="145.242">A</text>
      <text x="193.249" y="155.111">U</text>
      <text x="178.760" y="151.229">G</text>
      <text x="164.271" y="147.347">U</text>
      <text x="149.782" y="143.464">G</text>
      <text x="135.293" y="139.582">G</text>
      <text x="126.477" y="127.447">C</text>
      <text x="127.262" y="112.467">U</text>
      <text x="128.047" y="97.488">U</text>
      <text x="128.832" y="82.509">U</text>
      <text x="129.617" y="67.529">U</text>
      <text x="130.402" y="52.550">U</text>
      <text x="131.187" y="37.570">C</text>
      <text x="134.383" y="18.454">A</text>
    </g>
  </g>
</svg>
