<?xml version="1.0" encoding="UTF-8" standalone="yes"?>
<svg xmlns="http://www.w3.org/2000/svg" height="452" width="452">
<script type="text/ecmascript">
      <![CDATA[
        var shown = 1;
        function click() {
             var seq = document.getElementById("seq");
             if (shown==1) {
               seq.setAttribute("style", "visibility: hidden");
               shown = 0;
             } else {
               seq.setAttribute("style", "visibility: visible");
               shown = 1;
             }
         }
        ]]>
</script>
  <rect style="stroke: white; fill: white" height="452" x="0" y="0" width="452" onclick="click(evt)" />
  <g transform="scale(1.605797,1.605797) translate(22.040833,33.645874)">
    <polyline style="stroke: black; fill: none; stroke-width: 1.5" id="outline" points="
      112.232,-10.179
      111.559,4.806
      110.886,19.791
      110.213,34.776
      109.540,49.761
      108.867,64.745
      108.194,79.730
      86.307,84.395
      73.189,100.376
      58.565,97.038
      43.941,93.701
      36.969,79.704
      22.610,73.511
      7.644,78.046
      -0.861,91.168
      1.109,106.681
      12.624,117.260
      28.249,117.910
      40.604,108.325
      55.228,111.662
      69.852,115.000
      71.860,125.039
      77.111,133.827
      84.999,140.352
      81.008,154.812
      77.018,169.271
      73.027,183.731
      69.037,198.190
      54.741,204.528
      47.910,218.594
      51.769,233.748
      64.496,242.834
      80.082,241.562
      91.167,230.533
      92.518,214.954
      83.496,202.181
      87.487,187.721
      91.477,173.262
      95.468,158.802
      99.458,144.343
      110.599,143.545
      121.053,138.636
      129.309,130.027
      134.073,118.677
      134.458,105.995
      149.443,105.322
      164.428,104.649
      179.413,103.976
      194.398,103.303
      204.843,114.941
      220.332,117.090
      233.552,108.737
      238.260,93.826
      232.234,79.396
      218.319,72.261
      203.085,75.791
      193.725,88.318
      178.740,88.991
      163.755,89.664
      148.770,90.337
      133.785,91.010
      123.179,80.403
      123.852,65.418
      124.525,50.434
      125.198,35.449
      125.870,20.464
      126.543,5.479
      127.216,-9.506
      130.269,-28.646
    " />
    <g style="stroke: black; stroke-width: 1" id="pairs">
      <line id="1,68" x1="112.232" y1="-10.179" x2="127.216" y2="-9.506" />
      <line id="2,67" x1="111.559" y1=" 4.806" x2="126.543" y2=" 5.479" />
      <line id="3,66" x1="110.886" y1="19.791" x2="125.870" y2="20.464" />
      <line id="4,65" x1="110.213" y1="34.776" x2="125.198" y2="35.449" />
      <line id="5,64" x1="109.540" y1="49.761" x2="124.525" y2="50.434" />
      <line id="6,63" x1="108.867" y1="64.745" x2="123.852" y2="65.418" />
      <line id="7,62" x1="108.194" y1="79.730" x2="123.179" y2="80.403" />
      <line id="9,21" x1="73.189" y1="100.376" x2="69.852" y2="115.000" />
      <line id="10,20" x1="58.565" y1="97.038" x2="55.228" y2="111.662" />
      <line id="11,19" x1="43.941" y1="93.701" x2="40.604" y2="108.325" />
      <line id="24,40" x1="84.999" y1="140.352" x2="99.458" y2="144.343" />
      <line id="25,39" x1="81.008" y1="154.812" x2="95.468" y2="158.802" />
      <line id="26,38" x1="77.018" y1="169.271" x2="91.477" y2="173.262" />
      <line id="27,37" x1="73.027" y1="183.731" x2="87.487" y2="187.721" />
      <line id="28,36" x1="69.037" y1="198.190" x2="83.496" y2="202.181" />
      <line id="45,61" x1="134.458" y1="105.995" x2="133.785" y2="91.010" />
      <line id="46,60" x1="149.443" y1="105.322" x2="148.770" y2="90.337" />
      <line id="47,59" x1="164.428" y1="104.649" x2="163.755" y2="89.664" />
      <line id="48,58" x1="179.413" y1="103.976" x2="178.740" y2="88.991" />
      <line id="49,57" x1="194.398" y1="103.303" x2="193.725" y2="88.318" />
    </g>
    <g style="font-family: SansSerif" transform="translate(-4.6, 4)" id="seq">
      <text x="112.232" y="-10.179">G</text>
      <text x="111.559" y="4.806">A</text>
      <text x="110.886" y="19.791">G</text>
      <text x="110.213" y="34.776">A</text>
      <text x="109.540" y="49.761">A</text>
      <text x="108.867" y="64.745">A</text>
      <text x="108.194" y="79.730">G</text>
      <text x="86.307" y="84.395">A</text>
      <text x="73.189" y="100.376">C</text>
      <text x="58.565" y="97.038">A</text>
      <text x="43.941" y="93.701">U</text>
      <text x="36.969" y="79.704">A</text>
      <text x="22.610" y="73.511">G</text>
      <text x="7.644" y="78.046">U</text>
      <text x="-0.861" y="91.168">G</text>
      <text x="1.109" y="106.681">G</text>
      <text x="12.624" y="117.260">U</text>
      <text x="28.249" y="117.910">U</text>
      <text x="40.604" y="108.325">A</text>
      <text x="55.228" y="111.662">U</text>
      <text x="69.852" y="115.000">G</text>
      <text x="71.860" y="125.039">A</text>
      <text x="77.111" y="133.827">C</text>
      <text x="84.999" y="140.352">G</text>
      <text x="81.008" y="154.812">U</text>
      <text x="77.018" y="169.271">U</text>
      <text x="73.027" y="183.731">G</text>
      <text x="69.037" y="198.190">G</text>
      <text x="54.741" y="204.528">C</text>
      <text x="47.910" y="218.594">U</text>
      <text x="51.769" y="233.748">U</text>
      <text x="64.496" y="242.834">G</text>
      <text x="80.082" y="241.562">A</text>
      <text x="91.167" y="230.533">A</text>
      <text x="92.518" y="214.954">A</text>
      <text x="83.496" y="202.181">C</text>
      <text x="87.487" y="187.721">C</text>
      <text x="91.477" y="173.262">A</text>
      <text x="95.468" y="158.802">G</text>
      <text x="99.458" y="144.343">U</text>
      <text x="110.599" y="143.545">G</text>
      <text x="121.053" y="138.636">G</text>
      <text x="129.309" y="130.027">G</text>
      <text x="134.073" y="118.677">A</text>
      <text x="134.458" y="105.995">G</text>
      <text x="149.443" y="105.322">A</text>
      <text x="164.428" y="104.649">G</text>
      <text x="179.413" y="103.976">G</text>
      <text x="194.398" y="103.303">G</text>
      <text x="204.843" y="114.941">U</text>
      <text x="220.332" y="117.090">U</text>
      <text x="233.552" y="108.737">C</text>
      <text x="238.260" y="93.826">G</text>
      <text x="232.234" y="79.396">A</text>
      <text x="218.319" y="72.261">U</text>
      <text x="203.085" y="75.791">U</text>
      <text x="193.725" y="88.318">C</text>
      <text x="178.740" y="88.991">C</text>
      <text x="163.755" y="89.664">U</text>
      <text x="148.770" y="90.337">U</text>
      <text x="133.785" y="91.010">C</text>
      <text x="123.179" y="80.403">C</text>
      <text x="123.852" y="65.418">U</text>
      <text x="124.525" y="50.434">U</text>
      <text x="125.198" y="35.449">U</text>
      <text x="125.870" y="20.464">C</text>
      <text x="126.543" y="5.479">U</text>
      <text x="127.216" y="-9.506">U</text>
      <text x="130.269" y="-28.646">A</text>
    </g>
  </g>
</svg>
