<?xml version="1.0" encoding="UTF-8" standalone="yes"?>
<svg xmlns="http://www.w3.org/2000/svg" height="452" width="452">
<script type="text/ecmascript">
      <![CDATA[
        var shown = 1;
        function click() {
             var seq = document.getElementById("seq");
             if (shown==1) {
               seq.setAttribute("style", "visibility: hidden");
               shown = 0;
             } else {
               seq.setAttribute("style", "visibility: visible");
               shown = 1;
             }
         }
        ]]>
</script>
  <rect style="stroke: white; fill: white" height="452" x="0" y="0" width="452" onclick="click(evt)" />
  <g transform="scale(1.660592,1.660592) translate(28.863220,25.261070)">
    <polyline style="stroke: black; fill: none; stroke-width: 1.5" id="outline" points="
      112.645,-1.806
      111.962,13.178
      111.280,28.163
      110.597,43.147
      109.914,58.132
      101.606,70.494
      108.707,84.632
      90.281,86.623
      75.803,96.811
      68.438,111.994
      53.473,110.970
      38.508,109.946
      23.543,108.923
      13.347,96.848
      -2.408,95.602
      -14.375,105.926
      -15.454,121.693
      -5.004,133.550
      10.774,134.462
      22.520,123.888
      37.485,124.911
      52.450,125.935
      67.415,126.959
      71.172,137.755
      78.386,146.622
      88.192,152.498
      86.150,167.358
      84.107,182.218
      82.065,197.079
      68.733,205.252
      63.823,220.099
      69.653,234.609
      83.470,241.931
      98.751,238.608
      108.280,226.209
      107.557,210.588
      96.925,199.121
      98.968,184.261
      101.010,169.401
      103.053,154.540
      112.833,152.994
      121.949,148.534
      129.533,141.423
      134.816,132.184
      137.208,121.560
      136.358,110.456
      151.261,108.752
      166.163,107.048
      181.066,105.345
      195.969,103.641
      209.373,112.457
      224.577,107.338
      229.919,92.211
      221.301,78.679
      205.333,77.124
      194.266,88.738
      179.363,90.442
      164.460,92.145
      149.557,93.849
      134.654,95.553
      123.691,85.314
      132.049,71.881
      124.899,58.815
      125.581,43.830
      126.264,28.846
      126.947,13.861
      127.630,-1.123
      130.695,-20.261
    " />
    <g style="stroke: black; stroke-width: 1" id="pairs">
      <line id="1,67" x1="112.645" y1="-1.806" x2="127.630" y2="-1.123" />
      <line id="2,66" x1="111.962" y1="13.178" x2="126.947" y2="13.861" />
      <line id="3,65" x1="111.280" y1="28.163" x2="126.264" y2="28.846" />
      <line id="4,64" x1="110.597" y1="43.147" x2="125.581" y2="43.830" />
      <line id="5,63" x1="109.914" y1="58.132" x2="124.899" y2="58.815" />
      <line id="7,61" x1="108.707" y1="84.632" x2="123.691" y2="85.314" />
      <line id="10,23" x1="68.438" y1="111.994" x2="67.415" y2="126.959" />
      <line id="11,22" x1="53.473" y1="110.970" x2="52.450" y2="125.935" />
      <line id="12,21" x1="38.508" y1="109.946" x2="37.485" y2="124.911" />
      <line id="13,20" x1="23.543" y1="108.923" x2="22.520" y2="123.888" />
      <line id="26,40" x1="88.192" y1="152.498" x2="103.053" y2="154.540" />
      <line id="27,39" x1="86.150" y1="167.358" x2="101.010" y2="169.401" />
      <line id="28,38" x1="84.107" y1="182.218" x2="98.968" y2="184.261" />
      <line id="29,37" x1="82.065" y1="197.079" x2="96.925" y2="199.121" />
      <line id="46,60" x1="136.358" y1="110.456" x2="134.654" y2="95.553" />
      <line id="47,59" x1="151.261" y1="108.752" x2="149.557" y2="93.849" />
      <line id="48,58" x1="166.163" y1="107.048" x2="164.460" y2="92.145" />
      <line id="49,57" x1="181.066" y1="105.345" x2="179.363" y2="90.442" />
      <line id="50,56" x1="195.969" y1="103.641" x2="194.266" y2="88.738" />
    </g>
    <g style="font-family: SansSerif" transform="translate(-4.6, 4)" id="seq">
      <text x="112.645" y="-1.806">C</text>
      <text x="111.962" y="13.178">A</text>
      <text x="111.280" y="28.163">A</text>
      <text x="110.597" y="43.147">A</text>
      <text x="109.914" y="58.132">G</text>
      <text x="101.606" y="70.494">C</text>
      <text x="108.707" y="84.632">A</text>
      <text x="90.281" y="86.623">U</text>
      <text x="75.803" y="96.811">A</text>
      <text x="68.438" y="111.994">G</text>
      <text x="53.473" y="110.970">C</text>
      <text x="38.508" y="109.946">U</text>
      <text x="23.543" y="108.923">U</text>
      <text x="13.347" y="96.848">A</text>
      <text x="-2.408" y="95.602">A</text>
      <text x="-14.375" y="105.926">A</text>
      <text x="-15.454" y="121.693">C</text>
      <text x="-5.004" y="133.550">U</text>
      <text x="10.774" y="134.462">A</text>
      <text x="22.520" y="123.888">A</text>
      <text x="37.485" y="124.911">A</text>
      <text x="52.450" y="125.935">G</text>
      <text x="67.415" y="126.959">C</text>
      <text x="71.172" y="137.755">A</text>
      <text x="78.386" y="146.622">C</text>
      <text x="88.192" y="152.498">C</text>
      <text x="86.150" y="167.358">U</text>
      <text x="84.107" y="182.218">A</text>
      <text x="82.065" y="197.079">G</text>
      <text x="68.733" y="205.252">U</text>
      <text x="63.823" y="220.099">U</text>
      <text x="69.653" y="234.609">U</text>
      <text x="83.470" y="241.931">A</text>
      <text x="98.751" y="238.608">C</text>
      <text x="108.280" y="226.209">A</text>
      <text x="107.557" y="210.588">C</text>
      <text x="96.925" y="199.121">C</text>
      <text x="98.968" y="184.261">U</text>
      <text x="101.010" y="169.401">A</text>
      <text x="103.053" y="154.540">G</text>
      <text x="112.833" y="152.994">A</text>
      <text x="121.949" y="148.534">A</text>
      <text x="129.533" y="141.423">G</text>
      <text x="134.816" y="132.184">A</text>
      <text x="137.208" y="121.560">U</text>
      <text x="136.358" y="110.456">C</text>
      <text x="151.261" y="108.752">C</text>
      <text x="166.163" y="107.048">C</text>
      <text x="181.066" y="105.345">A</text>
      <text x="195.969" y="103.641">U</text>
      <text x="209.373" y="112.457">A</text>
      <text x="224.577" y="107.338">A</text>
      <text x="229.919" y="92.211">U</text>
      <text x="221.301" y="78.679">A</text>
      <text x="205.333" y="77.124">U</text>
      <text x="194.266" y="88.738">A</text>
      <text x="179.363" y="90.442">U</text>
      <text x="164.460" y="92.145">G</text>
      <text x="149.557" y="93.849">G</text>
      <text x="134.654" y="95.553">G</text>
      <text x="123.691" y="85.314">U</text>
      <text x="132.049" y="71.881">A</text>
      <text x="124.899" y="58.815">C</text>
      <text x="125.581" y="43.830">U</text>
      <text x="126.264" y="28.846">U</text>
      <text x="126.947" y="13.861">U</text>
      <text x="127.630" y="-1.123">G</text>
      <text x="130.695" y="-20.261">A</text>
    </g>
  </g>
</svg>
