<?xml version="1.0" encoding="UTF-8" standalone="yes"?>
<svg xmlns="http://www.w3.org/2000/svg" height="452" width="452">
<script type="text/ecmascript">
      <![CDATA[
        var shown = 1;
        function click() {
             var seq = document.getElementById("seq");
             if (shown==1) {
               seq.setAttribute("style", "visibility: hidden");
               shown = 0;
             } else {
               seq.setAttribute("style", "visibility: visible");
               shown = 1;
             }
         }
        ]]>
</script>
  <rect style="stroke: white; fill: white" height="452" x="0" y="0" width="452" onclick="click(evt)" />
  <g transform="scale(0.265168,0.265168) translate(487.665283,732.842957)">
    <polyline style="stroke: black; fill: none; stroke-width: 1.5" id="outline" points="
      123.809,34.768
      123.442,49.763
      123.075,64.759
      115.578,64.575
      114.404,49.621
      113.231,34.667
      112.058,19.713
      110.885,4.759
      122.167,-6.069
      123.798,-21.621
      115.008,-34.554
      99.947,-38.762
      85.727,-32.257
      79.061,-18.111
      83.098,-3.004
      95.931,5.932
      97.104,20.886
      98.277,35.840
      99.450,50.794
      100.624,65.748
      75.582,83.104
      63.980,106.192
      51.452,97.943
      38.925,89.693
      26.397,81.444
      13.869,73.194
      1.341,64.945
      -11.187,56.695
      -23.715,48.446
      -36.242,40.196
      -48.770,31.947
      -49.156,9.356
      -74.717,-4.831
      -85.772,-14.970
      -96.827,-25.108
      -107.882,-35.246
      -118.937,-45.385
      -129.992,-55.523
      -141.030,-65.679
      -152.052,-75.854
      -147.241,-85.629
      -147.052,-97.592
      -152.397,-109.485
      -163.074,-118.721
      -177.680,-122.922
      -187.618,-134.157
      -197.557,-145.392
      -200.839,-153.777
      -207.546,-156.648
      -217.521,-167.850
      -227.496,-179.053
      -212.677,-197.140
      -212.877,-225.912
      -234.318,-252.660
      -239.814,-266.617
      -236.855,-282.747
      -249.518,-293.167
      -264.777,-287.158
      -266.934,-270.901
      -253.771,-261.120
      -248.275,-247.164
      -254.663,-243.235
      -262.521,-256.013
      -270.378,-268.790
      -283.155,-260.932
      -275.298,-248.155
      -267.441,-235.378
      -273.830,-231.449
      -283.805,-242.652
      -293.779,-253.854
      -287.099,-258.805
      -281.544,-266.010
      -277.806,-275.174
      -276.491,-285.799
      -278.062,-297.214
      -282.794,-308.618
      -290.735,-319.131
      -301.695,-327.858
      -310.005,-340.345
      -318.316,-352.833
      -313.081,-367.320
      -317.331,-381.942
      -329.235,-391.148
      -344.100,-391.575
      -352.411,-404.062
      -360.721,-416.549
      -369.032,-429.037
      -367.296,-444.985
      -378.783,-456.184
      -394.683,-454.042
      -402.797,-440.202
      -396.902,-425.282
      -381.519,-420.726
      -373.209,-408.239
      -364.898,-395.751
      -356.587,-383.264
      -361.933,-369.387
      -358.036,-354.852
      -346.189,-345.286
      -330.803,-344.522
      -322.493,-332.035
      -314.182,-319.547
      -319.982,-314.792
      -329.492,-326.392
      -341.092,-316.882
      -331.582,-305.282
      -337.382,-300.527
      -347.997,-311.125
      -358.613,-321.723
      -369.210,-332.338
      -379.791,-342.971
      -373.089,-356.549
      -371.160,-371.567
      -374.215,-386.398
      -381.923,-399.431
      -393.446,-409.255
      -407.535,-414.801
      -422.663,-415.470
      -437.187,-411.189
      -449.532,-402.421
      -458.360,-390.119
      -462.712,-375.616
      -462.117,-360.486
      -456.640,-346.369
      -446.873,-334.798
      -433.877,-327.027
      -419.062,-323.899
      -404.034,-325.754
      -390.424,-332.390
      -379.843,-321.758
      -377.383,-314.890
      -369.210,-311.108
      -358.595,-300.510
      -347.980,-289.912
      -352.866,-284.222
      -362.639,-272.842
      -367.525,-267.152
      -367.986,-280.537
      -375.923,-291.083
      -388.288,-295.111
      -400.543,-291.375
      -412.652,-300.228
      -421.871,-314.457
      -438.095,-309.537
      -437.860,-292.585
      -421.505,-288.119
      -409.395,-279.266
      -407.482,-262.500
      -393.726,-252.152
      -376.417,-255.072
      -351.355,-232.919
      -323.483,-230.939
      -304.982,-243.879
      -295.007,-232.677
      -285.032,-221.474
      -289.730,-215.628
      -304.554,-217.919
      -299.126,-203.935
      -303.824,-198.089
      -316.911,-205.419
      -324.826,-219.782
      -341.225,-219.838
      -349.239,-205.531
      -340.623,-191.577
      -324.241,-192.332
      -311.154,-185.002
      -300.755,-170.093
      -287.201,-160.222
      -272.488,-155.785
      -258.524,-156.468
      -246.897,-161.351
      -238.699,-169.078
      -228.724,-157.875
      -218.749,-146.673
      -208.792,-135.454
      -198.854,-124.218
      -188.915,-112.983
      -192.906,-106.633
      -205.606,-114.615
      -218.306,-122.597
      -231.006,-130.579
      -238.988,-117.879
      -226.288,-109.897
      -213.588,-101.915
      -200.888,-93.933
      -204.879,-87.583
      -216.052,-98.785
      -230.405,-94.804
      -244.839,-98.887
      -249.507,-108.533
      -258.491,-113.966
      -268.767,-113.635
      -277.024,-107.883
      -291.484,-111.872
      -305.944,-115.860
      -320.404,-119.849
      -334.864,-123.837
      -345.983,-135.891
      -361.920,-132.026
      -366.280,-116.217
      -354.579,-104.728
      -338.853,-109.377
      -324.393,-105.389
      -309.933,-101.400
      -295.473,-97.412
      -281.013,-93.423
      -268.335,-78.729
      -248.922,-84.453
      -234.488,-80.370
      -224.347,-69.461
      -208.962,-73.150
      -184.665,-57.132
      -162.227,-64.832
      -151.205,-54.658
      -148.455,-47.900
      -140.130,-44.468
      -129.075,-34.330
      -118.020,-24.191
      -106.965,-14.053
      -95.910,-3.915
      -84.855,6.224
      -87.420,13.271
      -102.192,15.876
      -92.551,27.367
      -95.116,34.415
      -109.243,27.292
      -121.617,35.582
      -136.603,36.243
      -151.588,36.903
      -166.585,37.221
      -181.585,37.197
      -196.585,37.172
      -201.723,22.911
      -211.431,11.270
      -224.537,3.653
      -239.458,0.981
      -254.392,3.577
      -267.537,11.126
      -277.304,22.718
      -282.514,36.953
      -282.539,52.111
      -277.375,66.363
      -267.646,77.987
      -254.526,85.579
      -239.600,88.224
      -224.670,85.601
      -211.540,78.027
      -201.794,66.417
      -196.609,52.172
      -181.609,52.197
      -166.609,52.221
      -180.294,58.363
      -190.600,69.262
      -195.966,83.270
      -195.579,98.265
      -189.500,111.978
      -178.647,122.332
      -164.664,127.761
      -149.667,127.442
      -135.927,121.425
      -125.524,110.619
      -120.032,96.660
      -120.282,81.662
      -126.238,67.895
      -136.997,57.443
      -150.928,51.889
      -135.942,51.228
      -120.957,50.568
      -107.901,57.737
      -94.455,49.400
      -71.953,54.717
      -57.020,44.475
      -44.492,52.724
      -31.964,60.974
      -19.436,69.223
      -6.908,77.473
      5.619,85.722
      18.147,93.972
      30.675,102.221
      43.203,110.470
      55.731,118.720
      52.557,128.130
      51.360,137.989
      52.191,147.885
      55.013,157.406
      59.711,166.156
      66.087,173.770
      57.413,186.008
      48.740,198.246
      40.066,210.483
      41.811,195.585
      43.555,180.687
      45.300,165.789
      -89.813,202.869
      -75.162,199.653
      -60.511,196.437
      -45.860,193.221
      -57.176,203.068
      -68.491,212.914
      -79.807,222.761
      -95.297,225.983
      -99.819,240.174
      -115.309,243.396
      -119.831,257.587
      -131.147,267.434
      -138.797,262.009
      -147.290,258.044
      -156.349,255.666
      -165.682,254.949
      -174.986,255.914
      -183.961,258.529
      -192.317,262.705
      -199.786,268.307
      -206.126,275.152
      -211.134,283.016
      -214.651,291.645
      -216.565,300.757
      -216.815,310.059
      -215.397,319.250
      -212.357,328.032
      -207.797,336.123
      -218.819,346.297
      -229.841,356.471
      -240.863,366.646
      -251.884,376.820
      -262.906,386.994
      -273.928,397.169
      -278.015,387.432
      -287.254,379.551
      -300.716,375.624
      -316.725,377.316
      -328.263,386.901
      -343.822,389.769
      -348.667,403.853
      -360.205,413.439
      -371.742,423.024
      -383.280,432.610
      -394.818,442.195
      -406.356,451.781
      -424.622,454.530
      -429.937,471.311
      -441.506,480.859
      -453.075,490.406
      -468.781,488.651
      -481.076,498.582
      -482.665,514.306
      -472.606,526.495
      -456.865,527.918
      -444.783,517.730
      -443.527,501.975
      -431.958,492.428
      -420.389,482.880
      -408.403,483.736
      -398.703,475.987
      -396.770,463.318
      -385.232,453.733
      -373.695,444.147
      -362.157,434.562
      -350.619,424.976
      -339.082,415.391
      -324.348,413.209
      -318.677,398.439
      -307.139,388.854
      -301.780,394.100
      -312.274,404.819
      -322.767,415.537
      -333.261,426.256
      -343.754,436.974
      -347.483,451.503
      -333.036,447.468
      -322.542,436.749
      -312.049,426.031
      -301.555,415.312
      -291.062,404.594
      -285.703,409.841
      -295.041,421.579
      -310.490,427.081
      -313.182,443.258
      -300.349,453.468
      -285.192,447.208
      -283.303,430.918
      -273.964,419.179
      -263.754,408.191
      -252.732,398.016
      -241.710,387.842
      -230.688,377.668
      -219.666,367.493
      -208.644,357.319
      -197.623,347.144
      -179.285,356.730
      -158.627,358.354
      -138.958,351.734
      -123.441,337.907
      -114.579,319.072
      -113.817,298.240
      -121.301,278.750
      -109.985,268.903
      -95.304,266.386
      -89.973,251.490
      -75.292,248.972
      -69.961,234.076
      -58.645,224.230
      -47.329,214.384
      -36.013,204.537
      -29.811,208.753
      -38.243,221.159
      -25.837,229.591
      -17.405,217.186
      -11.203,221.402
      -16.195,235.547
      -21.187,249.692
      -26.179,263.837
      -31.171,277.982
      -36.163,292.127
      -39.933,295.367
      -41.961,299.315
      -42.261,303.219
      -41.134,306.435
      -45.988,320.628
      -60.670,325.288
      -69.688,337.558
      -69.751,352.606
      -61.045,364.662
      -65.899,378.855
      -70.752,393.048
      -75.606,407.241
      -90.609,410.834
      -101.271,421.984
      -104.191,437.132
      -98.436,451.446
      -85.843,460.357
      -70.430,461.023
      -57.115,453.230
      -50.148,439.466
      -51.751,424.122
      -61.413,412.095
      -56.559,397.902
      -51.706,383.709
      -46.852,369.516
      -32.587,365.315
      -23.423,353.378
      -23.040,338.156
      -31.794,325.481
      -26.941,311.288
      -22.018,297.119
      -17.026,282.974
      -12.034,268.829
      -7.042,254.684
      -2.050,240.539
      2.942,226.394
      10.292,227.889
      7.303,242.588
      4.313,257.287
      1.324,271.986
      -1.665,286.685
      13.034,289.674
      16.023,274.976
      19.012,260.276
      22.002,245.577
      24.991,230.878
      32.341,232.373
      17.577,235.526
      4.212,242.546
      -6.762,252.912
      -14.532,265.856
      -18.520,280.416
      -18.431,295.512
      -14.272,310.024
      -6.350,322.875
      4.746,333.112
      18.192,339.974
      32.992,342.952
      48.047,341.827
      62.239,336.680
      74.515,327.894
      83.965,316.121
      89.887,302.235
      91.842,287.265
      89.685,272.324
      83.575,258.519
      73.966,246.875
      61.572,238.256
      47.312,233.302
      52.304,219.157
      60.978,206.919
      69.651,194.681
      78.325,182.443
      128.791,192.551
      172.583,147.944
      174.631,162.803
      176.680,177.663
      178.729,192.522
      167.336,198.941
      158.794,208.800
      154.085,220.931
      153.741,233.908
      157.780,246.211
      165.710,256.409
      176.586,263.320
      189.124,266.155
      191.270,281.001
      184.687,296.021
      194.620,309.070
      210.850,306.724
      216.682,291.397
      206.115,278.855
      203.970,264.010
      218.322,254.897
      227.223,240.347
      228.810,223.308
      222.708,207.260
      210.121,195.501
      193.588,190.474
      191.540,175.614
      189.491,160.755
      187.442,145.895
      193.060,140.926
      201.982,152.984
      205.940,167.452
      220.315,171.738
      231.550,161.799
      229.050,147.009
      215.174,141.314
      204.295,130.988
      209.912,126.018
      224.411,129.865
      238.903,133.736
      253.388,137.630
      260.750,142.816
      267.928,141.513
      282.426,145.360
      296.924,149.207
      311.423,153.053
      325.921,156.900
      340.419,160.747
      354.918,164.594
      369.416,168.441
      370.290,189.450
      378.280,208.878
      392.410,224.395
      410.973,234.143
      431.729,236.963
      452.180,232.528
      469.869,221.387
      482.678,204.889
      496.696,210.226
      510.715,215.563
      524.734,220.900
      538.752,226.236
      522.311,247.992
      527.347,283.213
      560.684,314.014
      573.345,322.058
      586.006,330.102
      598.666,338.146
      611.327,346.190
      623.988,354.234
      636.648,362.278
      649.309,370.322
      661.957,378.386
      674.591,386.472
      670.927,398.278
      673.300,411.821
      682.382,423.941
      697.196,431.313
      705.588,443.746
      713.980,456.179
      722.372,468.611
      716.943,483.148
      721.128,498.090
      733.317,507.692
      748.824,508.262
      761.685,499.581
      766.956,484.987
      762.609,470.091
      750.317,460.621
      734.805,460.219
      726.413,447.787
      718.021,435.354
      709.629,422.921
      714.644,417.344
      725.797,427.374
      736.951,437.404
      748.105,447.433
      758.134,436.279
      746.981,426.250
      735.827,416.220
      724.673,406.190
      729.688,400.614
      742.939,407.643
      756.190,414.672
      769.442,421.701
      782.693,428.730
      795.944,435.759
      809.195,442.788
      807.620,451.748
      808.143,460.816
      810.728,469.509
      815.231,477.364
      821.408,483.967
      828.923,488.969
      837.372,492.108
      846.303,493.224
      855.237,492.262
      863.699,489.280
      871.240,484.444
      877.460,478.016
      890.868,484.741
      897.038,491.300
      904.331,491.466
      917.761,498.147
      921.606,503.274
      926.682,505.455
      931.301,504.827
      944.774,511.420
      958.247,518.013
      971.721,524.607
      985.161,531.266
      998.570,537.990
      1011.978,544.715
      1025.375,551.462
      1034.199,564.593
      1049.048,563.432
      1046.541,579.446
      1051.582,595.813
      1063.910,608.988
      1081.616,615.769
      1101.419,614.051
      1114.409,621.551
      1111.572,631.367
      1113.004,642.497
      1119.225,653.029
      1129.889,660.884
      1143.758,664.203
      1156.574,671.998
      1169.390,679.792
      1176.784,694.430
      1193.171,695.075
      1201.692,681.064
      1193.583,666.810
      1177.185,666.977
      1164.369,659.182
      1151.553,651.387
      1155.239,644.856
      1166.298,625.261
      1179.595,632.203
      1187.928,646.328
      1204.321,645.903
      1211.911,631.366
      1202.890,617.671
      1186.537,618.907
      1173.241,611.964
      1155.368,597.947
      1135.416,597.895
      1121.909,608.561
      1108.919,601.061
      1112.127,594.281
      1125.686,600.698
      1139.244,607.115
      1145.660,593.556
      1132.102,587.140
      1118.544,580.723
      1121.753,573.944
      1135.789,579.235
      1143.686,593.200
      1159.550,595.590
      1171.211,584.573
      1169.724,568.599
      1156.230,559.922
      1141.079,565.199
      1127.044,559.908
      1119.892,547.846
      1109.694,538.902
      1097.644,533.749
      1085.047,532.639
      1073.176,535.400
      1063.148,541.485
      1055.817,550.045
      1047.950,537.398
      1032.143,538.075
      1027.649,532.329
      1018.702,531.307
      1005.294,524.582
      991.886,517.857
      990.437,514.774
      987.487,512.199
      983.274,510.803
      978.314,511.133
      964.840,504.540
      951.367,497.947
      937.894,491.354
      924.442,484.717
      911.012,478.036
      897.593,471.333
      884.185,464.608
      884.252,443.687
      873.397,425.712
      854.713,415.959
      833.604,417.341
      816.224,429.537
      802.973,422.508
      789.722,415.479
      776.471,408.450
      763.220,401.421
      749.968,394.392
      736.717,387.362
      721.118,367.521
      699.152,363.587
      682.676,373.837
      670.042,365.752
      666.151,359.581
      657.353,357.661
      644.693,349.617
      632.032,341.573
      619.371,333.529
      606.710,325.485
      594.050,317.441
      581.389,309.397
      568.728,301.353
      570.616,294.094
      585.133,297.870
      599.593,293.882
      588.909,283.353
      574.392,279.577
      576.280,272.319
      591.255,271.463
      606.231,270.607
      621.206,269.751
      634.088,279.314
      649.559,275.065
      655.750,260.265
      647.913,246.266
      632.059,243.808
      620.351,254.776
      605.375,255.632
      590.399,256.487
      575.424,257.343
      574.206,249.943
      589.007,247.507
      603.808,245.071
      618.609,242.635
      633.410,240.199
      648.210,237.763
      663.011,235.328
      677.812,232.891
      675.376,218.091
      660.575,220.527
      645.775,222.963
      630.974,225.398
      616.173,227.834
      601.372,230.270
      586.571,232.706
      571.770,235.142
      570.552,227.742
      585.012,223.753
      599.472,219.764
      613.932,215.776
      628.392,211.787
      642.852,207.799
      657.312,203.810
      670.931,211.829
      686.210,207.788
      694.084,194.085
      689.882,178.849
      676.096,171.121
      660.906,175.484
      653.324,189.350
      638.864,193.339
      624.404,197.327
      609.944,201.316
      595.484,205.304
      581.024,209.293
      566.564,213.282
      579.067,204.996
      586.044,191.717
      585.773,176.719
      578.321,163.701
      565.526,155.872
      550.543,155.163
      537.066,161.749
      528.419,174.005
      526.733,188.910
      532.424,202.789
      544.089,212.218
      530.070,206.881
      516.052,201.544
      502.033,196.208
      488.015,190.871
      489.216,184.425
      489.710,177.887
      489.490,171.334
      488.558,164.844
      486.926,158.494
      484.613,152.358
      497.480,144.648
      510.346,136.937
      523.212,129.226
      536.079,121.515
      548.945,113.804
      561.811,106.093
      575.591,113.030
      590.932,111.393
      602.937,101.704
      607.777,87.055
      603.907,72.121
      592.562,61.667
      577.362,59.029
      563.157,65.048
      554.480,77.804
      554.101,93.227
      541.234,100.938
      528.368,108.649
      515.502,116.359
      502.635,124.070
      489.769,131.781
      476.903,139.492
      469.763,131.803
      461.392,125.467
      452.043,120.676
      441.997,117.579
      431.559,116.272
      421.047,116.796
      410.778,119.139
      401.065,123.232
      392.205,128.951
      384.467,136.127
      378.088,144.542
      373.263,153.942
      358.765,150.096
      344.266,146.249
      329.768,142.402
      315.270,138.555
      300.771,134.708
      286.273,130.861
      271.774,127.015
      257.282,123.144
      242.797,119.250
      237.224,114.542
      228.257,115.367
      213.759,111.520
      210.830,104.616
      225.397,101.041
      239.965,97.466
      254.533,93.891
      269.459,95.378
      281.914,87.018
      286.191,72.641
      280.333,58.833
      267.021,51.918
      252.355,55.065
      243.053,66.832
      230.359,74.824
      217.665,82.816
      204.971,90.807
      202.042,83.903
      209.350,70.804
      216.659,57.705
      230.139,49.423
      229.584,34.539
      236.892,21.440
      250.808,27.092
      265.312,30.991
      280.186,33.077
      295.203,33.321
      310.136,31.716
      324.759,28.289
      338.850,23.091
      352.196,16.200
      364.593,7.722
      375.855,-2.216
      385.810,-13.462
      394.307,-25.847
      401.218,-39.182
      406.438,-53.265
      409.888,-67.882
      411.515,-82.813
      411.295,-97.831
      409.231,-112.708
      405.354,-127.218
      399.724,-141.142
      392.425,-154.269
      383.568,-166.399
      373.288,-177.349
      361.740,-186.952
      349.100,-195.064
      335.558,-201.560
      321.321,-206.343
      306.604,-209.341
      291.630,-210.507
      276.626,-209.823
      261.820,-207.302
      247.436,-202.980
      233.692,-196.923
      220.797,-189.222
      208.946,-179.996
      198.318,-169.383
      189.075,-157.544
      181.357,-144.660
      175.282,-130.924
      170.940,-116.546
      168.398,-101.744
      167.694,-86.741
      168.839,-71.765
      171.816,-57.044
      176.580,-42.800
      183.058,-29.250
      191.152,-16.598
      200.740,-5.037
      211.675,5.258
      223.793,14.132
      216.485,27.231
      203.527,34.575
      203.560,50.396
      196.251,63.496
      188.943,76.595
      181.819,74.249
      186.510,60.001
      191.201,45.754
      195.892,31.506
      200.583,17.259
      205.274,3.011
      209.965,-11.236
      214.656,-25.484
      200.408,-30.175
      195.718,-15.928
      191.026,-1.680
      186.335,12.568
      181.644,26.815
      176.953,41.063
      172.262,55.310
      167.571,69.558
      160.447,67.212
      162.351,52.334
      164.254,37.455
      166.157,22.576
      168.061,7.697
      169.964,-7.181
      171.867,-22.060
      173.770,-36.939
      175.674,-51.818
      177.577,-66.696
      187.937,-79.408
      181.857,-94.638
      165.590,-96.719
      155.871,-83.510
      162.698,-68.600
      160.795,-53.721
      158.892,-38.842
      156.988,-23.963
      155.085,-9.085
      153.182,5.794
      151.279,20.673
      149.375,35.552
      147.472,50.430
      145.569,65.309
      138.071,65.126
      138.438,50.130
      138.805,35.135
      139.172,20.139
      139.539,5.144
      132.359,-8.026
      124.543,4.777
    " />
    <g style="stroke: black; stroke-width: 1" id="pairs">
      <line id="4,20" x1="115.578" y1="64.575" x2="100.624" y2="65.748" />
      <line id="5,19" x1="114.404" y1="49.621" x2="99.450" y2="50.794" />
      <line id="6,18" x1="113.231" y1="34.667" x2="98.277" y2="35.840" />
      <line id="7,17" x1="112.058" y1="19.713" x2="97.104" y2="20.886" />
      <line id="8,16" x1="110.885" y1=" 4.759" x2="95.931" y2=" 5.932" />
      <line id="22,281" x1="63.980" y1="106.192" x2="55.731" y2="118.720" />
      <line id="23,280" x1="51.452" y1="97.943" x2="43.203" y2="110.470" />
      <line id="24,279" x1="38.925" y1="89.693" x2="30.675" y2="102.221" />
      <line id="25,278" x1="26.397" y1="81.444" x2="18.147" y2="93.972" />
      <line id="26,277" x1="13.869" y1="73.194" x2=" 5.619" y2="85.722" />
      <line id="27,276" x1=" 1.341" y1="64.945" x2="-6.908" y2="77.473" />
      <line id="28,275" x1="-11.187" y1="56.695" x2="-19.436" y2="69.223" />
      <line id="29,274" x1="-23.715" y1="48.446" x2="-31.964" y2="60.974" />
      <line id="30,273" x1="-36.242" y1="40.196" x2="-44.492" y2="52.724" />
      <line id="31,272" x1="-48.770" y1="31.947" x2="-57.020" y2="44.475" />
      <line id="33,221" x1="-74.717" y1="-4.831" x2="-84.855" y2=" 6.224" />
      <line id="34,220" x1="-85.772" y1="-14.970" x2="-95.910" y2="-3.915" />
      <line id="35,219" x1="-96.827" y1="-25.108" x2="-106.965" y2="-14.053" />
      <line id="36,218" x1="-107.882" y1="-35.246" x2="-118.020" y2="-24.191" />
      <line id="37,217" x1="-118.937" y1="-45.385" x2="-129.075" y2="-34.330" />
      <line id="38,216" x1="-129.992" y1="-55.523" x2="-140.130" y2="-44.468" />
      <line id="39,214" x1="-141.030" y1="-65.679" x2="-151.205" y2="-54.658" />
      <line id="40,213" x1="-152.052" y1="-75.854" x2="-162.227" y2="-64.832" />
      <line id="45,177" x1="-177.680" y1="-122.922" x2="-188.915" y2="-112.983" />
      <line id="46,176" x1="-187.618" y1="-134.157" x2="-198.854" y2="-124.218" />
      <line id="47,175" x1="-197.557" y1="-145.392" x2="-208.792" y2="-135.454" />
      <line id="49,174" x1="-207.546" y1="-156.648" x2="-218.749" y2="-146.673" />
      <line id="50,173" x1="-217.521" y1="-167.850" x2="-228.724" y2="-157.875" />
      <line id="51,172" x1="-227.496" y1="-179.053" x2="-238.699" y2="-169.078" />
      <line id="54,61" x1="-234.318" y1="-252.660" x2="-248.275" y2="-247.164" />
      <line id="55,60" x1="-239.814" y1="-266.617" x2="-253.771" y2="-261.120" />
      <line id="68,155" x1="-273.830" y1="-231.449" x2="-285.032" y2="-221.474" />
      <line id="69,154" x1="-283.805" y1="-242.652" x2="-295.007" y2="-232.677" />
      <line id="70,153" x1="-293.779" y1="-253.854" x2="-304.982" y2="-243.879" />
      <line id="78,102" x1="-301.695" y1="-327.858" x2="-314.182" y2="-319.547" />
      <line id="79,101" x1="-310.005" y1="-340.345" x2="-322.493" y2="-332.035" />
      <line id="80,100" x1="-318.316" y1="-352.833" x2="-330.803" y2="-344.522" />
      <line id="84,96" x1="-344.100" y1="-391.575" x2="-356.587" y2="-383.264" />
      <line id="85,95" x1="-352.411" y1="-404.062" x2="-364.898" y2="-395.751" />
      <line id="86,94" x1="-360.721" y1="-416.549" x2="-373.209" y2="-408.239" />
      <line id="87,93" x1="-369.032" y1="-429.037" x2="-381.519" y2="-420.726" />
      <line id="107,134" x1="-337.382" y1="-300.527" x2="-347.980" y2="-289.912" />
      <line id="108,133" x1="-347.997" y1="-311.125" x2="-358.595" y2="-300.510" />
      <line id="109,132" x1="-358.613" y1="-321.723" x2="-369.210" y2="-311.108" />
      <line id="110,130" x1="-369.210" y1="-332.338" x2="-379.843" y2="-321.758" />
      <line id="111,129" x1="-379.791" y1="-342.971" x2="-390.424" y2="-332.390" />
      <line id="137,150" x1="-367.525" y1="-267.152" x2="-376.417" y2="-255.072" />
      <line id="141,147" x1="-400.543" y1="-291.375" x2="-409.395" y2="-279.266" />
      <line id="142,146" x1="-412.652" y1="-300.228" x2="-421.505" y2="-288.119" />
      <line id="159,166" x1="-303.824" y1="-198.089" x2="-311.154" y2="-185.002" />
      <line id="160,165" x1="-316.911" y1="-205.419" x2="-324.241" y2="-192.332" />
      <line id="186,211" x1="-204.879" y1="-87.583" x2="-208.962" y2="-73.150" />
      <line id="188,209" x1="-230.405" y1="-94.804" x2="-234.488" y2="-80.370" />
      <line id="189,208" x1="-244.839" y1="-98.887" x2="-248.922" y2="-84.453" />
      <line id="193,206" x1="-277.024" y1="-107.883" x2="-281.013" y2="-93.423" />
      <line id="194,205" x1="-291.484" y1="-111.872" x2="-295.473" y2="-97.412" />
      <line id="195,204" x1="-305.944" y1="-115.860" x2="-309.933" y2="-101.400" />
      <line id="196,203" x1="-320.404" y1="-119.849" x2="-324.393" y2="-105.389" />
      <line id="197,202" x1="-334.864" y1="-123.837" x2="-338.853" y2="-109.377" />
      <line id="225,270" x1="-95.116" y1="34.415" x2="-94.455" y2="49.400" />
      <line id="227,268" x1="-121.617" y1="35.582" x2="-120.957" y2="50.568" />
      <line id="228,267" x1="-136.603" y1="36.243" x2="-135.942" y2="51.228" />
      <line id="229,266" x1="-151.588" y1="36.903" x2="-150.928" y2="51.889" />
      <line id="230,251" x1="-166.585" y1="37.221" x2="-166.609" y2="52.221" />
      <line id="231,250" x1="-181.585" y1="37.197" x2="-181.609" y2="52.197" />
      <line id="232,249" x1="-196.585" y1="37.172" x2="-196.609" y2="52.172" />
      <line id="287,487" x1="66.087" y1="173.770" x2="78.325" y2="182.443" />
      <line id="288,486" x1="57.413" y1="186.008" x2="69.651" y2="194.681" />
      <line id="289,485" x1="48.740" y1="198.246" x2="60.978" y2="206.919" />
      <line id="290,484" x1="40.066" y1="210.483" x2="52.304" y2="219.157" />
      <line id="297,404" x1="-45.860" y1="193.221" x2="-36.013" y2="204.537" />
      <line id="298,403" x1="-57.176" y1="203.068" x2="-47.329" y2="214.384" />
      <line id="299,402" x1="-68.491" y1="212.914" x2="-58.645" y2="224.230" />
      <line id="300,401" x1="-79.807" y1="222.761" x2="-69.961" y2="234.076" />
      <line id="302,399" x1="-99.819" y1="240.174" x2="-89.973" y2="251.490" />
      <line id="304,397" x1="-119.831" y1="257.587" x2="-109.985" y2="268.903" />
      <line id="305,396" x1="-131.147" y1="267.434" x2="-121.301" y2="278.750" />
      <line id="321,389" x1="-207.797" y1="336.123" x2="-197.623" y2="347.144" />
      <line id="322,388" x1="-218.819" y1="346.297" x2="-208.644" y2="357.319" />
      <line id="323,387" x1="-229.841" y1="356.471" x2="-219.666" y2="367.493" />
      <line id="324,386" x1="-240.863" y1="366.646" x2="-230.688" y2="377.668" />
      <line id="325,385" x1="-251.884" y1="376.820" x2="-241.710" y2="387.842" />
      <line id="326,384" x1="-262.906" y1="386.994" x2="-252.732" y2="398.016" />
      <line id="327,383" x1="-273.928" y1="397.169" x2="-263.754" y2="408.191" />
      <line id="331,363" x1="-316.725" y1="377.316" x2="-307.139" y2="388.854" />
      <line id="332,362" x1="-328.263" y1="386.901" x2="-318.677" y2="398.439" />
      <line id="334,360" x1="-348.667" y1="403.853" x2="-339.082" y2="415.391" />
      <line id="335,359" x1="-360.205" y1="413.439" x2="-350.619" y2="424.976" />
      <line id="336,358" x1="-371.742" y1="423.024" x2="-362.157" y2="434.562" />
      <line id="337,357" x1="-383.280" y1="432.610" x2="-373.695" y2="444.147" />
      <line id="338,356" x1="-394.818" y1="442.195" x2="-385.232" y2="453.733" />
      <line id="339,355" x1="-406.356" y1="451.781" x2="-396.770" y2="463.318" />
      <line id="341,352" x1="-429.937" y1="471.311" x2="-420.389" y2="482.880" />
      <line id="342,351" x1="-441.506" y1="480.859" x2="-431.958" y2="492.428" />
      <line id="343,350" x1="-453.075" y1="490.406" x2="-443.527" y2="501.975" />
      <line id="375,382" x1="-285.703" y1="409.841" x2="-273.964" y2="419.179" />
      <line id="376,381" x1="-295.041" y1="421.579" x2="-283.303" y2="430.918" />
      <line id="409,450" x1="-11.203" y1="221.402" x2=" 2.942" y2="226.394" />
      <line id="410,449" x1="-16.195" y1="235.547" x2="-2.050" y2="240.539" />
      <line id="411,448" x1="-21.187" y1="249.692" x2="-7.042" y2="254.684" />
      <line id="412,447" x1="-26.179" y1="263.837" x2="-12.034" y2="268.829" />
      <line id="413,446" x1="-31.171" y1="277.982" x2="-17.026" y2="282.974" />
      <line id="414,445" x1="-36.163" y1="292.127" x2="-22.018" y2="297.119" />
      <line id="418,444" x1="-41.134" y1="306.435" x2="-26.941" y2="311.288" />
      <line id="419,443" x1="-45.988" y1="320.628" x2="-31.794" y2="325.481" />
      <line id="423,439" x1="-61.045" y1="364.662" x2="-46.852" y2="369.516" />
      <line id="424,438" x1="-65.899" y1="378.855" x2="-51.706" y2="383.709" />
      <line id="425,437" x1="-70.752" y1="393.048" x2="-56.559" y2="397.902" />
      <line id="426,436" x1="-75.606" y1="407.241" x2="-61.413" y2="412.095" />
      <line id="461,483" x1="32.341" y1="232.373" x2="47.312" y2="233.302" />
      <line id="489,516" x1="172.583" y1="147.944" x2="187.442" y2="145.895" />
      <line id="490,515" x1="174.631" y1="162.803" x2="189.491" y2="160.755" />
      <line id="491,514" x1="176.680" y1="177.663" x2="191.540" y2="175.614" />
      <line id="492,513" x1="178.729" y1="192.522" x2="193.588" y2="190.474" />
      <line id="500,507" x1="189.124" y1="266.155" x2="203.970" y2="264.010" />
      <line id="501,506" x1="191.270" y1="281.001" x2="206.115" y2="278.855" />
      <line id="525,840" x1="209.912" y1="126.018" x2="213.759" y2="111.520" />
      <line id="526,839" x1="224.411" y1="129.865" x2="228.257" y2="115.367" />
      <line id="527,837" x1="238.903" y1="133.736" x2="242.797" y2="119.250" />
      <line id="528,836" x1="253.388" y1="137.630" x2="257.282" y2="123.144" />
      <line id="530,835" x1="267.928" y1="141.513" x2="271.774" y2="127.015" />
      <line id="531,834" x1="282.426" y1="145.360" x2="286.273" y2="130.861" />
      <line id="532,833" x1="296.924" y1="149.207" x2="300.771" y2="134.708" />
      <line id="533,832" x1="311.423" y1="153.053" x2="315.270" y2="138.555" />
      <line id="534,831" x1="325.921" y1="156.900" x2="329.768" y2="142.402" />
      <line id="535,830" x1="340.419" y1="160.747" x2="344.266" y2="146.249" />
      <line id="536,829" x1="354.918" y1="164.594" x2="358.765" y2="150.096" />
      <line id="537,828" x1="369.416" y1="168.441" x2="373.263" y2="153.942" />
      <line id="545,788" x1="482.678" y1="204.889" x2="488.015" y2="190.871" />
      <line id="546,787" x1="496.696" y1="210.226" x2="502.033" y2="196.208" />
      <line id="547,786" x1="510.715" y1="215.563" x2="516.052" y2="201.544" />
      <line id="548,785" x1="524.734" y1="220.900" x2="530.070" y2="206.881" />
      <line id="549,784" x1="538.752" y1="226.236" x2="544.089" y2="212.218" />
      <line id="552,719" x1="560.684" y1="314.014" x2="568.728" y2="301.353" />
      <line id="553,718" x1="573.345" y1="322.058" x2="581.389" y2="309.397" />
      <line id="554,717" x1="586.006" y1="330.102" x2="594.050" y2="317.441" />
      <line id="555,716" x1="598.666" y1="338.146" x2="606.710" y2="325.485" />
      <line id="556,715" x1="611.327" y1="346.190" x2="619.371" y2="333.529" />
      <line id="557,714" x1="623.988" y1="354.234" x2="632.032" y2="341.573" />
      <line id="558,713" x1="636.648" y1="362.278" x2="644.693" y2="349.617" />
      <line id="559,712" x1="649.309" y1="370.322" x2="657.353" y2="357.661" />
      <line id="560,710" x1="661.957" y1="378.386" x2="670.042" y2="365.752" />
      <line id="561,709" x1="674.591" y1="386.472" x2="682.676" y2="373.837" />
      <line id="565,580" x1="697.196" y1="431.313" x2="709.629" y2="422.921" />
      <line id="566,579" x1="705.588" y1="443.746" x2="718.021" y2="435.354" />
      <line id="567,578" x1="713.980" y1="456.179" x2="726.413" y2="447.787" />
      <line id="568,577" x1="722.372" y1="468.611" x2="734.805" y2="460.219" />
      <line id="589,706" x1="729.688" y1="400.614" x2="736.717" y2="387.362" />
      <line id="590,705" x1="742.939" y1="407.643" x2="749.968" y2="394.392" />
      <line id="591,704" x1="756.190" y1="414.672" x2="763.220" y2="401.421" />
      <line id="592,703" x1="769.442" y1="421.701" x2="776.471" y2="408.450" />
      <line id="593,702" x1="782.693" y1="428.730" x2="789.722" y2="415.479" />
      <line id="594,701" x1="795.944" y1="435.759" x2="802.973" y2="422.508" />
      <line id="595,700" x1="809.195" y1="442.788" x2="816.224" y2="429.537" />
      <line id="607,695" x1="877.460" y1="478.016" x2="884.185" y2="464.608" />
      <line id="608,694" x1="890.868" y1="484.741" x2="897.593" y2="471.333" />
      <line id="610,693" x1="904.331" y1="491.466" x2="911.012" y2="478.036" />
      <line id="611,692" x1="917.761" y1="498.147" x2="924.442" y2="484.717" />
      <line id="614,691" x1="931.301" y1="504.827" x2="937.894" y2="491.354" />
      <line id="615,690" x1="944.774" y1="511.420" x2="951.367" y2="497.947" />
      <line id="616,689" x1="958.247" y1="518.013" x2="964.840" y2="504.540" />
      <line id="617,688" x1="971.721" y1="524.607" x2="978.314" y2="511.133" />
      <line id="618,684" x1="985.161" y1="531.266" x2="991.886" y2="517.857" />
      <line id="619,683" x1="998.570" y1="537.990" x2="1005.294" y2="524.582" />
      <line id="620,682" x1="1011.978" y1="544.715" x2="1018.702" y2="531.307" />
      <line id="621,680" x1="1025.375" y1="551.462" x2="1032.143" y2="538.075" />
      <line id="623,678" x1="1049.048" y1="563.432" x2="1055.817" y2="550.045" />
      <line id="628,656" x1="1101.419" y1="614.051" x2="1108.919" y2="601.061" />
      <line id="629,655" x1="1114.409" y1="621.551" x2="1121.909" y2="608.561" />
      <line id="634,643" x1="1143.758" y1="664.203" x2="1151.553" y2="651.387" />
      <line id="635,642" x1="1156.574" y1="671.998" x2="1164.369" y2="659.182" />
      <line id="636,641" x1="1169.390" y1="679.792" x2="1177.185" y2="666.977" />
      <line id="645,652" x1="1166.298" y1="625.261" x2="1173.241" y2="611.964" />
      <line id="646,651" x1="1179.595" y1="632.203" x2="1186.537" y2="618.907" />
      <line id="663,671" x1="1121.753" y1="573.944" x2="1127.044" y2="559.908" />
      <line id="664,670" x1="1135.789" y1="579.235" x2="1141.079" y2="565.199" />
      <line id="725,737" x1="576.280" y1="272.319" x2="575.424" y2="257.343" />
      <line id="726,736" x1="591.255" y1="271.463" x2="590.399" y2="256.487" />
      <line id="727,735" x1="606.231" y1="270.607" x2="605.375" y2="255.632" />
      <line id="728,734" x1="621.206" y1="269.751" x2="620.351" y2="254.776" />
      <line id="754,773" x1="570.552" y1="227.742" x2="566.564" y2="213.282" />
      <line id="755,772" x1="585.012" y1="223.753" x2="581.024" y2="209.293" />
      <line id="756,771" x1="599.472" y1="219.764" x2="595.484" y2="205.304" />
      <line id="757,770" x1="613.932" y1="215.776" x2="609.944" y2="201.316" />
      <line id="758,769" x1="628.392" y1="211.787" x2="624.404" y2="197.327" />
      <line id="759,768" x1="642.852" y1="207.799" x2="638.864" y2="193.339" />
      <line id="760,767" x1="657.312" y1="203.810" x2="653.324" y2="189.350" />
      <line id="794,816" x1="484.613" y1="152.358" x2="476.903" y2="139.492" />
      <line id="795,815" x1="497.480" y1="144.648" x2="489.769" y2="131.781" />
      <line id="796,814" x1="510.346" y1="136.937" x2="502.635" y2="124.070" />
      <line id="797,813" x1="523.212" y1="129.226" x2="515.502" y2="116.359" />
      <line id="798,812" x1="536.079" y1="121.515" x2="528.368" y2="108.649" />
      <line id="799,811" x1="548.945" y1="113.804" x2="541.234" y2="100.938" />
      <line id="800,810" x1="561.811" y1="106.093" x2="554.101" y2="93.227" />
      <line id="855,915" x1="202.042" y1="83.903" x2="188.943" y2="76.595" />
      <line id="856,914" x1="209.350" y1="70.804" x2="196.251" y2="63.496" />
      <line id="857,913" x1="216.659" y1="57.705" x2="203.560" y2="50.396" />
      <line id="859,911" x1="229.584" y1="34.539" x2="216.485" y2="27.231" />
      <line id="860,910" x1="236.892" y1="21.440" x2="223.793" y2="14.132" />
      <line id="932,955" x1="160.447" y1="67.212" x2="145.569" y2="65.309" />
      <line id="933,954" x1="162.351" y1="52.334" x2="147.472" y2="50.430" />
      <line id="934,953" x1="164.254" y1="37.455" x2="149.375" y2="35.552" />
      <line id="935,952" x1="166.157" y1="22.576" x2="151.279" y2="20.673" />
      <line id="936,951" x1="168.061" y1=" 7.697" x2="153.182" y2=" 5.794" />
      <line id="937,950" x1="169.964" y1="-7.181" x2="155.085" y2="-9.085" />
      <line id="938,949" x1="171.867" y1="-22.060" x2="156.988" y2="-23.963" />
      <line id="939,948" x1="173.770" y1="-36.939" x2="158.892" y2="-38.842" />
      <line id="940,947" x1="175.674" y1="-51.818" x2="160.795" y2="-53.721" />
      <line id="941,946" x1="177.577" y1="-66.696" x2="162.698" y2="-68.600" />
    </g>
    <g style="font-family: SansSerif" transform="translate(-4.6, 4)" id="seq">
      <text x="123.809" y="34.768">C</text>
      <text x="123.442" y="49.763">A</text>
      <text x="123.075" y="64.759">C</text>
      <text x="115.578" y="64.575">A</text>
      <text x="114.404" y="49.621">G</text>
      <text x="113.231" y="34.667">G</text>
      <text x="112.058" y="19.713">U</text>
      <text x="110.885" y="4.759">U</text>
      <text x="122.167" y="-6.069">U</text>
      <text x="123.798" y="-21.621">G</text>
      <text x="115.008" y="-34.554">G</text>
      <text x="99.947" y="-38.762">U</text>
      <text x="85.727" y="-32.257">C</text>
      <text x="79.061" y="-18.111">C</text>
      <text x="83.098" y="-3.004">U</text>
      <text x="95.931" y="5.932">G</text>
      <text x="97.104" y="20.886">G</text>
      <text x="98.277" y="35.840">C</text>
      <text x="99.450" y="50.794">C</text>
      <text x="100.624" y="65.748">U</text>
      <text x="75.582" y="83.104">U</text>
      <text x="63.980" y="106.192">U</text>
      <text x="51.452" y="97.943">C</text>
      <text x="38.925" y="89.693">U</text>
      <text x="26.397" y="81.444">A</text>
      <text x="13.869" y="73.194">U</text>
      <text x="1.341" y="64.945">U</text>
      <text x="-11.187" y="56.695">A</text>
      <text x="-23.715" y="48.446">A</text>
      <text x="-36.242" y="40.196">U</text>
      <text x="-48.770" y="31.947">U</text>
      <text x="-49.156" y="9.356">C</text>
      <text x="-74.717" y="-4.831">U</text>
      <text x="-85.772" y="-14.970">U</text>
      <text x="-96.827" y="-25.108">A</text>
      <text x="-107.882" y="-35.246">A</text>
      <text x="-118.937" y="-45.385">U</text>
      <text x="-129.992" y="-55.523">A</text>
      <text x="-141.030" y="-65.679">A</text>
      <text x="-152.052" y="-75.854">A</text>
      <text x="-147.241" y="-85.629">A</text>
      <text x="-147.052" y="-97.592">U</text>
      <text x="-152.397" y="-109.485">U</text>
      <text x="-163.074" y="-118.721">A</text>
      <text x="-177.680" y="-122.922">C</text>
      <text x="-187.618" y="-134.157">A</text>
      <text x="-197.557" y="-145.392">C</text>
      <text x="-200.839" y="-153.777">A</text>
      <text x="-207.546" y="-156.648">U</text>
      <text x="-217.521" y="-167.850">G</text>
      <text x="-227.496" y="-179.053">C</text>
      <text x="-212.677" y="-197.140">A</text>
      <text x="-212.877" y="-225.912">A</text>
      <text x="-234.318" y="-252.660">G</text>
      <text x="-239.814" y="-266.617">U</text>
      <text x="-236.855" y="-282.747">A</text>
      <text x="-249.518" y="-293.167">U</text>
      <text x="-264.777" y="-287.158">C</text>
      <text x="-266.934" y="-270.901">C</text>
      <text x="-253.771" y="-261.120">G</text>
      <text x="-248.275" y="-247.164">C</text>
      <text x="-254.663" y="-243.235">G</text>
      <text x="-262.521" y="-256.013">C</text>
      <text x="-270.378" y="-268.790">C</text>
      <text x="-283.155" y="-260.932">C</text>
      <text x="-275.298" y="-248.155">C</text>
      <text x="-267.441" y="-235.378">G</text>
      <text x="-273.830" y="-231.449">G</text>
      <text x="-283.805" y="-242.652">U</text>
      <text x="-293.779" y="-253.854">G</text>
      <text x="-287.099" y="-258.805">A</text>
      <text x="-281.544" y="-266.010">G</text>
      <text x="-277.806" y="-275.174">A</text>
      <text x="-276.491" y="-285.799">A</text>
      <text x="-278.062" y="-297.214">U</text>
      <text x="-282.794" y="-308.618">G</text>
      <text x="-290.735" y="-319.131">C</text>
      <text x="-301.695" y="-327.858">C</text>
      <text x="-310.005" y="-340.345">C</text>
      <text x="-318.316" y="-352.833">U</text>
      <text x="-313.081" y="-367.320">C</text>
      <text x="-317.331" y="-381.942">C</text>
      <text x="-329.235" y="-391.148">A</text>
      <text x="-344.100" y="-391.575">G</text>
      <text x="-352.411" y="-404.062">A</text>
      <text x="-360.721" y="-416.549">U</text>
      <text x="-369.032" y="-429.037">C</text>
      <text x="-367.296" y="-444.985">C</text>
      <text x="-378.783" y="-456.184">U</text>
      <text x="-394.683" y="-454.042">A</text>
      <text x="-402.797" y="-440.202">A</text>
      <text x="-396.902" y="-425.282">A</text>
      <text x="-381.519" y="-420.726">G</text>
      <text x="-373.209" y="-408.239">A</text>
      <text x="-364.898" y="-395.751">U</text>
      <text x="-356.587" y="-383.264">C</text>
      <text x="-361.933" y="-369.387">A</text>
      <text x="-358.036" y="-354.852">A</text>
      <text x="-346.189" y="-345.286">A</text>
      <text x="-330.803" y="-344.522">A</text>
      <text x="-322.493" y="-332.035">G</text>
      <text x="-314.182" y="-319.547">G</text>
      <text x="-319.982" y="-314.792">A</text>
      <text x="-329.492" y="-326.392">G</text>
      <text x="-341.092" y="-316.882">C</text>
      <text x="-331.582" y="-305.282">A</text>
      <text x="-337.382" y="-300.527">G</text>
      <text x="-347.997" y="-311.125">G</text>
      <text x="-358.613" y="-321.723">U</text>
      <text x="-369.210" y="-332.338">A</text>
      <text x="-379.791" y="-342.971">U</text>
      <text x="-373.089" y="-356.549">C</text>
      <text x="-371.160" y="-371.567">A</text>
      <text x="-374.215" y="-386.398">A</text>
      <text x="-381.923" y="-399.431">G</text>
      <text x="-393.446" y="-409.255">C</text>
      <text x="-407.535" y="-414.801">A</text>
      <text x="-422.663" y="-415.470">C</text>
      <text x="-437.187" y="-411.189">A</text>
      <text x="-449.532" y="-402.421">C</text>
      <text x="-458.360" y="-390.119">C</text>
      <text x="-462.712" y="-375.616">U</text>
      <text x="-462.117" y="-360.486">A</text>
      <text x="-456.640" y="-346.369">U</text>
      <text x="-446.873" y="-334.798">A</text>
      <text x="-433.877" y="-327.027">A</text>
      <text x="-419.062" y="-323.899">C</text>
      <text x="-404.034" y="-325.754">G</text>
      <text x="-390.424" y="-332.390">G</text>
      <text x="-379.843" y="-321.758">U</text>
      <text x="-377.383" y="-314.890">A</text>
      <text x="-369.210" y="-311.108">G</text>
      <text x="-358.595" y="-300.510">C</text>
      <text x="-347.980" y="-289.912">U</text>
      <text x="-352.866" y="-284.222">C</text>
      <text x="-362.639" y="-272.842">A</text>
      <text x="-367.525" y="-267.152">U</text>
      <text x="-367.986" y="-280.537">A</text>
      <text x="-375.923" y="-291.083">A</text>
      <text x="-388.288" y="-295.111">C</text>
      <text x="-400.543" y="-291.375">G</text>
      <text x="-412.652" y="-300.228">C</text>
      <text x="-421.871" y="-314.457">C</text>
      <text x="-438.095" y="-309.537">U</text>
      <text x="-437.860" y="-292.585">U</text>
      <text x="-421.505" y="-288.119">G</text>
      <text x="-409.395" y="-279.266">C</text>
      <text x="-407.482" y="-262.500">U</text>
      <text x="-393.726" y="-252.152">C</text>
      <text x="-376.417" y="-255.072">A</text>
      <text x="-351.355" y="-232.919">A</text>
      <text x="-323.483" y="-230.939">C</text>
      <text x="-304.982" y="-243.879">C</text>
      <text x="-295.007" y="-232.677">A</text>
      <text x="-285.032" y="-221.474">C</text>
      <text x="-289.730" y="-215.628">A</text>
      <text x="-304.554" y="-217.919">C</text>
      <text x="-299.126" y="-203.935">C</text>
      <text x="-303.824" y="-198.089">C</text>
      <text x="-316.911" y="-205.419">C</text>
      <text x="-324.826" y="-219.782">C</text>
      <text x="-341.225" y="-219.838">A</text>
      <text x="-349.239" y="-205.531">C</text>
      <text x="-340.623" y="-191.577">G</text>
      <text x="-324.241" y="-192.332">G</text>
      <text x="-311.154" y="-185.002">G</text>
      <text x="-300.755" y="-170.093">A</text>
      <text x="-287.201" y="-160.222">A</text>
      <text x="-272.488" y="-155.785">A</text>
      <text x="-258.524" y="-156.468">C</text>
      <text x="-246.897" y="-161.351">A</text>
      <text x="-238.699" y="-169.078">G</text>
      <text x="-228.724" y="-157.875">C</text>
      <text x="-218.749" y="-146.673">A</text>
      <text x="-208.792" y="-135.454">G</text>
      <text x="-198.854" y="-124.218">U</text>
      <text x="-188.915" y="-112.983">G</text>
      <text x="-192.906" y="-106.633">A</text>
      <text x="-205.606" y="-114.615">U</text>
      <text x="-218.306" y="-122.597">A</text>
      <text x="-231.006" y="-130.579">A</text>
      <text x="-238.988" y="-117.879">A</text>
      <text x="-226.288" y="-109.897">A</text>
      <text x="-213.588" y="-101.915">A</text>
      <text x="-200.888" y="-93.933">U</text>
      <text x="-204.879" y="-87.583">U</text>
      <text x="-216.052" y="-98.785">A</text>
      <text x="-230.405" y="-94.804">A</text>
      <text x="-244.839" y="-98.887">G</text>
      <text x="-249.507" y="-108.533">C</text>
      <text x="-258.491" y="-113.966">C</text>
      <text x="-268.767" y="-113.635">A</text>
      <text x="-277.024" y="-107.883">U</text>
      <text x="-291.484" y="-111.872">G</text>
      <text x="-305.944" y="-115.860">A</text>
      <text x="-320.404" y="-119.849">A</text>
      <text x="-334.864" y="-123.837">C</text>
      <text x="-345.983" y="-135.891">G</text>
      <text x="-361.920" y="-132.026">A</text>
      <text x="-366.280" y="-116.217">A</text>
      <text x="-354.579" y="-104.728">A</text>
      <text x="-338.853" y="-109.377">G</text>
      <text x="-324.393" y="-105.389">U</text>
      <text x="-309.933" y="-101.400">U</text>
      <text x="-295.473" y="-97.412">U</text>
      <text x="-281.013" y="-93.423">G</text>
      <text x="-268.335" y="-78.729">A</text>
      <text x="-248.922" y="-84.453">C</text>
      <text x="-234.488" y="-80.370">U</text>
      <text x="-224.347" y="-69.461">A</text>
      <text x="-208.962" y="-73.150">A</text>
      <text x="-184.665" y="-57.132">G</text>
      <text x="-162.227" y="-64.832">U</text>
      <text x="-151.205" y="-54.658">U</text>
      <text x="-148.455" y="-47.900">A</text>
      <text x="-140.130" y="-44.468">U</text>
      <text x="-129.075" y="-34.330">A</text>
      <text x="-118.020" y="-24.191">U</text>
      <text x="-106.965" y="-14.053">U</text>
      <text x="-95.910" y="-3.915">A</text>
      <text x="-84.855" y="6.224">A</text>
      <text x="-87.420" y="13.271">U</text>
      <text x="-102.192" y="15.876">U</text>
      <text x="-92.551" y="27.367">A</text>
      <text x="-95.116" y="34.415">G</text>
      <text x="-109.243" y="27.292">A</text>
      <text x="-121.617" y="35.582">G</text>
      <text x="-136.603" y="36.243">U</text>
      <text x="-151.588" y="36.903">U</text>
      <text x="-166.585" y="37.221">G</text>
      <text x="-181.585" y="37.197">G</text>
      <text x="-196.585" y="37.172">U</text>
      <text x="-201.723" y="22.911">A</text>
      <text x="-211.431" y="11.270">A</text>
      <text x="-224.537" y="3.653">A</text>
      <text x="-239.458" y="0.981">U</text>
      <text x="-254.392" y="3.577">C</text>
      <text x="-267.537" y="11.126">U</text>
      <text x="-277.304" y="22.718">C</text>
      <text x="-282.514" y="36.953">G</text>
      <text x="-282.539" y="52.111">U</text>
      <text x="-277.375" y="66.363">G</text>
      <text x="-267.646" y="77.987">C</text>
      <text x="-254.526" y="85.579">C</text>
      <text x="-239.600" y="88.224">A</text>
      <text x="-224.670" y="85.601">G</text>
      <text x="-211.540" y="78.027">C</text>
      <text x="-201.794" y="66.417">C</text>
      <text x="-196.609" y="52.172">A</text>
      <text x="-181.609" y="52.197">C</text>
      <text x="-166.609" y="52.221">C</text>
      <text x="-180.294" y="58.363">G</text>
      <text x="-190.600" y="69.262">C</text>
      <text x="-195.966" y="83.270">G</text>
      <text x="-195.579" y="98.265">G</text>
      <text x="-189.500" y="111.978">U</text>
      <text x="-178.647" y="122.332">C</text>
      <text x="-164.664" y="127.761">A</text>
      <text x="-149.667" y="127.442">U</text>
      <text x="-135.927" y="121.425">A</text>
      <text x="-125.524" y="110.619">C</text>
      <text x="-120.032" y="96.660">G</text>
      <text x="-120.282" y="81.662">A</text>
      <text x="-126.238" y="67.895">U</text>
      <text x="-136.997" y="57.443">U</text>
      <text x="-150.928" y="51.889">A</text>
      <text x="-135.942" y="51.228">A</text>
      <text x="-120.957" y="50.568">C</text>
      <text x="-107.901" y="57.737">C</text>
      <text x="-94.455" y="49.400">C</text>
      <text x="-71.953" y="54.717">A</text>
      <text x="-57.020" y="44.475">A</text>
      <text x="-44.492" y="52.724">A</text>
      <text x="-31.964" y="60.974">U</text>
      <text x="-19.436" y="69.223">U</text>
      <text x="-6.908" y="77.473">A</text>
      <text x="5.619" y="85.722">A</text>
      <text x="18.147" y="93.972">U</text>
      <text x="30.675" y="102.221">A</text>
      <text x="43.203" y="110.470">G</text>
      <text x="55.731" y="118.720">A</text>
      <text x="52.557" y="128.130">U</text>
      <text x="51.360" y="137.989">C</text>
      <text x="52.191" y="147.885">C</text>
      <text x="55.013" y="157.406">A</text>
      <text x="59.711" y="166.156">C</text>
      <text x="66.087" y="173.770">G</text>
      <text x="57.413" y="186.008">G</text>
      <text x="48.740" y="198.246">C</text>
      <text x="40.066" y="210.483">G</text>
      <text x="41.811" y="195.585">U</text>
      <text x="43.555" y="180.687">A</text>
      <text x="45.300" y="165.789">A</text>
      <text x="-89.813" y="202.869">A</text>
      <text x="-75.162" y="199.653">G</text>
      <text x="-60.511" y="196.437">A</text>
      <text x="-45.860" y="193.221">G</text>
      <text x="-57.176" y="203.068">U</text>
      <text x="-68.491" y="212.914">G</text>
      <text x="-79.807" y="222.761">U</text>
      <text x="-95.297" y="225.983">U</text>
      <text x="-99.819" y="240.174">U</text>
      <text x="-115.309" y="243.396">A</text>
      <text x="-119.831" y="257.587">A</text>
      <text x="-131.147" y="267.434">G</text>
      <text x="-138.797" y="262.009">A</text>
      <text x="-147.290" y="258.044">A</text>
      <text x="-156.349" y="255.666">A</text>
      <text x="-165.682" y="254.949">A</text>
      <text x="-174.986" y="255.914">A</text>
      <text x="-183.961" y="258.529">A</text>
      <text x="-192.317" y="262.705">A</text>
      <text x="-199.786" y="268.307">A</text>
      <text x="-206.126" y="275.152">A</text>
      <text x="-211.134" y="283.016">C</text>
      <text x="-214.651" y="291.645">C</text>
      <text x="-216.565" y="300.757">A</text>
      <text x="-216.815" y="310.059">C</text>
      <text x="-215.397" y="319.250">A</text>
      <text x="-212.357" y="328.032">A</text>
      <text x="-207.797" y="336.123">U</text>
      <text x="-218.819" y="346.297">A</text>
      <text x="-229.841" y="356.471">G</text>
      <text x="-240.863" y="366.646">A</text>
      <text x="-251.884" y="376.820">G</text>
      <text x="-262.906" y="386.994">U</text>
      <text x="-273.928" y="397.169">U</text>
      <text x="-278.015" y="387.432">A</text>
      <text x="-287.254" y="379.551">A</text>
      <text x="-300.716" y="375.624">A</text>
      <text x="-316.725" y="377.316">U</text>
      <text x="-328.263" y="386.901">U</text>
      <text x="-343.822" y="389.769">A</text>
      <text x="-348.667" y="403.853">U</text>
      <text x="-360.205" y="413.439">A</text>
      <text x="-371.742" y="423.024">A</text>
      <text x="-383.280" y="432.610">C</text>
      <text x="-394.818" y="442.195">U</text>
      <text x="-406.356" y="451.781">A</text>
      <text x="-424.622" y="454.530">A</text>
      <text x="-429.937" y="471.311">G</text>
      <text x="-441.506" y="480.859">C</text>
      <text x="-453.075" y="490.406">U</text>
      <text x="-468.781" y="488.651">G</text>
      <text x="-481.076" y="498.582">U</text>
      <text x="-482.665" y="514.306">A</text>
      <text x="-472.606" y="526.495">A</text>
      <text x="-456.865" y="527.918">A</text>
      <text x="-444.783" y="517.730">A</text>
      <text x="-443.527" y="501.975">A</text>
      <text x="-431.958" y="492.428">G</text>
      <text x="-420.389" y="482.880">C</text>
      <text x="-408.403" y="483.736">C</text>
      <text x="-398.703" y="475.987">C</text>
      <text x="-396.770" y="463.318">U</text>
      <text x="-385.232" y="453.733">A</text>
      <text x="-373.695" y="444.147">G</text>
      <text x="-362.157" y="434.562">U</text>
      <text x="-350.619" y="424.976">U</text>
      <text x="-339.082" y="415.391">A</text>
      <text x="-324.348" y="413.209">A</text>
      <text x="-318.677" y="398.439">A</text>
      <text x="-307.139" y="388.854">A</text>
      <text x="-301.780" y="394.100">U</text>
      <text x="-312.274" y="404.819">A</text>
      <text x="-322.767" y="415.537">A</text>
      <text x="-333.261" y="426.256">A</text>
      <text x="-343.754" y="436.974">A</text>
      <text x="-347.483" y="451.503">U</text>
      <text x="-333.036" y="447.468">A</text>
      <text x="-322.542" y="436.749">A</text>
      <text x="-312.049" y="426.031">C</text>
      <text x="-301.555" y="415.312">C</text>
      <text x="-291.062" y="404.594">C</text>
      <text x="-285.703" y="409.841">A</text>
      <text x="-295.041" y="421.579">C</text>
      <text x="-310.490" y="427.081">G</text>
      <text x="-313.182" y="443.258">A</text>
      <text x="-300.349" y="453.468">A</text>
      <text x="-285.192" y="447.208">A</text>
      <text x="-283.303" y="430.918">G</text>
      <text x="-273.964" y="419.179">U</text>
      <text x="-263.754" y="408.191">G</text>
      <text x="-252.732" y="398.016">A</text>
      <text x="-241.710" y="387.842">C</text>
      <text x="-230.688" y="377.668">U</text>
      <text x="-219.666" y="367.493">C</text>
      <text x="-208.644" y="357.319">U</text>
      <text x="-197.623" y="347.144">A</text>
      <text x="-179.285" y="356.730">A</text>
      <text x="-158.627" y="358.354">U</text>
      <text x="-138.958" y="351.734">A</text>
      <text x="-123.441" y="337.907">A</text>
      <text x="-114.579" y="319.072">U</text>
      <text x="-113.817" y="298.240">C</text>
      <text x="-121.301" y="278.750">C</text>
      <text x="-109.985" y="268.903">U</text>
      <text x="-95.304" y="266.386">G</text>
      <text x="-89.973" y="251.490">A</text>
      <text x="-75.292" y="248.972">C</text>
      <text x="-69.961" y="234.076">A</text>
      <text x="-58.645" y="224.230">C</text>
      <text x="-47.329" y="214.384">A</text>
      <text x="-36.013" y="204.537">C</text>
      <text x="-29.811" y="208.753">G</text>
      <text x="-38.243" y="221.159">A</text>
      <text x="-25.837" y="229.591">U</text>
      <text x="-17.405" y="217.186">A</text>
      <text x="-11.203" y="221.402">G</text>
      <text x="-16.195" y="235.547">C</text>
      <text x="-21.187" y="249.692">U</text>
      <text x="-26.179" y="263.837">A</text>
      <text x="-31.171" y="277.982">G</text>
      <text x="-36.163" y="292.127">G</text>
      <text x="-39.933" y="295.367">A</text>
      <text x="-41.961" y="299.315">C</text>
      <text x="-42.261" y="303.219">C</text>
      <text x="-41.134" y="306.435">C</text>
      <text x="-45.988" y="320.628">A</text>
      <text x="-60.670" y="325.288">A</text>
      <text x="-69.688" y="337.558">A</text>
      <text x="-69.751" y="352.606">C</text>
      <text x="-61.045" y="364.662">U</text>
      <text x="-65.899" y="378.855">G</text>
      <text x="-70.752" y="393.048">G</text>
      <text x="-75.606" y="407.241">G</text>
      <text x="-90.609" y="410.834">A</text>
      <text x="-101.271" y="421.984">U</text>
      <text x="-104.191" y="437.132">U</text>
      <text x="-98.436" y="451.446">A</text>
      <text x="-85.843" y="460.357">G</text>
      <text x="-70.430" y="461.023">A</text>
      <text x="-57.115" y="453.230">U</text>
      <text x="-50.148" y="439.466">A</text>
      <text x="-51.751" y="424.122">C</text>
      <text x="-61.413" y="412.095">C</text>
      <text x="-56.559" y="397.902">C</text>
      <text x="-51.706" y="383.709">C</text>
      <text x="-46.852" y="369.516">A</text>
      <text x="-32.587" y="365.315">C</text>
      <text x="-23.423" y="353.378">U</text>
      <text x="-23.040" y="338.156">A</text>
      <text x="-31.794" y="325.481">U</text>
      <text x="-26.941" y="311.288">G</text>
      <text x="-22.018" y="297.119">C</text>
      <text x="-17.026" y="282.974">C</text>
      <text x="-12.034" y="268.829">U</text>
      <text x="-7.042" y="254.684">A</text>
      <text x="-2.050" y="240.539">G</text>
      <text x="2.942" y="226.394">C</text>
      <text x="10.292" y="227.889">C</text>
      <text x="7.303" y="242.588">C</text>
      <text x="4.313" y="257.287">U</text>
      <text x="1.324" y="271.986">A</text>
      <text x="-1.665" y="286.685">A</text>
      <text x="13.034" y="289.674">A</text>
      <text x="16.023" y="274.976">C</text>
      <text x="19.012" y="260.276">C</text>
      <text x="22.002" y="245.577">C</text>
      <text x="24.991" y="230.878">A</text>
      <text x="32.341" y="232.373">A</text>
      <text x="17.577" y="235.526">A</text>
      <text x="4.212" y="242.546">U</text>
      <text x="-6.762" y="252.912">A</text>
      <text x="-14.532" y="265.856">G</text>
      <text x="-18.520" y="280.416">U</text>
      <text x="-18.431" y="295.512">U</text>
      <text x="-14.272" y="310.024">A</text>
      <text x="-6.350" y="322.875">C</text>
      <text x="4.746" y="333.112">A</text>
      <text x="18.192" y="339.974">U</text>
      <text x="32.992" y="342.952">A</text>
      <text x="48.047" y="341.827">A</text>
      <text x="62.239" y="336.680">C</text>
      <text x="74.515" y="327.894">A</text>
      <text x="83.965" y="316.121">A</text>
      <text x="89.887" y="302.235">A</text>
      <text x="91.842" y="287.265">A</text>
      <text x="89.685" y="272.324">C</text>
      <text x="83.575" y="258.519">U</text>
      <text x="73.966" y="246.875">A</text>
      <text x="61.572" y="238.256">U</text>
      <text x="47.312" y="233.302">U</text>
      <text x="52.304" y="219.157">C</text>
      <text x="60.978" y="206.919">G</text>
      <text x="69.651" y="194.681">C</text>
      <text x="78.325" y="182.443">C</text>
      <text x="128.791" y="192.551">A</text>
      <text x="172.583" y="147.944">G</text>
      <text x="174.631" y="162.803">A</text>
      <text x="176.680" y="177.663">G</text>
      <text x="178.729" y="192.522">U</text>
      <text x="167.336" y="198.941">A</text>
      <text x="158.794" y="208.800">C</text>
      <text x="154.085" y="220.931">U</text>
      <text x="153.741" y="233.908">A</text>
      <text x="157.780" y="246.211">C</text>
      <text x="165.710" y="256.409">U</text>
      <text x="176.586" y="263.320">C</text>
      <text x="189.124" y="266.155">G</text>
      <text x="191.270" y="281.001">C</text>
      <text x="184.687" y="296.021">A</text>
      <text x="194.620" y="309.070">A</text>
      <text x="210.850" y="306.724">C</text>
      <text x="216.682" y="291.397">U</text>
      <text x="206.115" y="278.855">G</text>
      <text x="203.970" y="264.010">C</text>
      <text x="218.322" y="254.897">C</text>
      <text x="227.223" y="240.347">U</text>
      <text x="228.810" y="223.308">A</text>
      <text x="222.708" y="207.260">A</text>
      <text x="210.121" y="195.501">A</text>
      <text x="193.588" y="190.474">A</text>
      <text x="191.540" y="175.614">C</text>
      <text x="189.491" y="160.755">U</text>
      <text x="187.442" y="145.895">C</text>
      <text x="193.060" y="140.926">A</text>
      <text x="201.982" y="152.984">A</text>
      <text x="205.940" y="167.452">A</text>
      <text x="220.315" y="171.738">G</text>
      <text x="231.550" y="161.799">G</text>
      <text x="229.050" y="147.009">A</text>
      <text x="215.174" y="141.314">C</text>
      <text x="204.295" y="130.988">U</text>
      <text x="209.912" y="126.018">U</text>
      <text x="224.411" y="129.865">G</text>
      <text x="238.903" y="133.736">G</text>
      <text x="253.388" y="137.630">C</text>
      <text x="260.750" y="142.816">G</text>
      <text x="267.928" y="141.513">G</text>
      <text x="282.426" y="145.360">U</text>
      <text x="296.924" y="149.207">G</text>
      <text x="311.423" y="153.053">C</text>
      <text x="325.921" y="156.900">U</text>
      <text x="340.419" y="160.747">U</text>
      <text x="354.918" y="164.594">C</text>
      <text x="369.416" y="168.441">A</text>
      <text x="370.290" y="189.450">C</text>
      <text x="378.280" y="208.878">A</text>
      <text x="392.410" y="224.395">U</text>
      <text x="410.973" y="234.143">C</text>
      <text x="431.729" y="236.963">C</text>
      <text x="452.180" y="232.528">A</text>
      <text x="469.869" y="221.387">C</text>
      <text x="482.678" y="204.889">C</text>
      <text x="496.696" y="210.226">U</text>
      <text x="510.715" y="215.563">A</text>
      <text x="524.734" y="220.900">G</text>
      <text x="538.752" y="226.236">A</text>
      <text x="522.311" y="247.992">G</text>
      <text x="527.347" y="283.213">G</text>
      <text x="560.684" y="314.014">A</text>
      <text x="573.345" y="322.058">G</text>
      <text x="586.006" y="330.102">C</text>
      <text x="598.666" y="338.146">C</text>
      <text x="611.327" y="346.190">U</text>
      <text x="623.988" y="354.234">G</text>
      <text x="636.648" y="362.278">U</text>
      <text x="649.309" y="370.322">U</text>
      <text x="661.957" y="378.386">C</text>
      <text x="674.591" y="386.472">U</text>
      <text x="670.927" y="398.278">A</text>
      <text x="673.300" y="411.821">U</text>
      <text x="682.382" y="423.941">A</text>
      <text x="697.196" y="431.313">A</text>
      <text x="705.588" y="443.746">U</text>
      <text x="713.980" y="456.179">C</text>
      <text x="722.372" y="468.611">G</text>
      <text x="716.943" y="483.148">A</text>
      <text x="721.128" y="498.090">U</text>
      <text x="733.317" y="507.692">A</text>
      <text x="748.824" y="508.262">A</text>
      <text x="761.685" y="499.581">A</text>
      <text x="766.956" y="484.987">C</text>
      <text x="762.609" y="470.091">C</text>
      <text x="750.317" y="460.621">C</text>
      <text x="734.805" y="460.219">C</text>
      <text x="726.413" y="447.787">G</text>
      <text x="718.021" y="435.354">A</text>
      <text x="709.629" y="422.921">U</text>
      <text x="714.644" y="417.344">A</text>
      <text x="725.797" y="427.374">G</text>
      <text x="736.951" y="437.404">A</text>
      <text x="748.105" y="447.433">C</text>
      <text x="758.134" y="436.279">C</text>
      <text x="746.981" y="426.250">U</text>
      <text x="735.827" y="416.220">U</text>
      <text x="724.673" y="406.190">A</text>
      <text x="729.688" y="400.614">C</text>
      <text x="742.939" y="407.643">C</text>
      <text x="756.190" y="414.672">A</text>
      <text x="769.442" y="421.701">A</text>
      <text x="782.693" y="428.730">C</text>
      <text x="795.944" y="435.759">C</text>
      <text x="809.195" y="442.788">C</text>
      <text x="807.620" y="451.748">U</text>
      <text x="808.143" y="460.816">U</text>
      <text x="810.728" y="469.509">G</text>
      <text x="815.231" y="477.364">C</text>
      <text x="821.408" y="483.967">C</text>
      <text x="828.923" y="488.969">A</text>
      <text x="837.372" y="492.108">A</text>
      <text x="846.303" y="493.224">U</text>
      <text x="855.237" y="492.262">U</text>
      <text x="863.699" y="489.280">C</text>
      <text x="871.240" y="484.444">A</text>
      <text x="877.460" y="478.016">G</text>
      <text x="890.868" y="484.741">C</text>
      <text x="897.038" y="491.300">C</text>
      <text x="904.331" y="491.466">U</text>
      <text x="917.761" y="498.147">A</text>
      <text x="921.606" y="503.274">U</text>
      <text x="926.682" y="505.455">A</text>
      <text x="931.301" y="504.827">U</text>
      <text x="944.774" y="511.420">A</text>
      <text x="958.247" y="518.013">C</text>
      <text x="971.721" y="524.607">C</text>
      <text x="985.161" y="531.266">G</text>
      <text x="998.570" y="537.990">C</text>
      <text x="1011.978" y="544.715">C</text>
      <text x="1025.375" y="551.462">A</text>
      <text x="1034.199" y="564.593">U</text>
      <text x="1049.048" y="563.432">C</text>
      <text x="1046.541" y="579.446">U</text>
      <text x="1051.582" y="595.813">U</text>
      <text x="1063.910" y="608.988">C</text>
      <text x="1081.616" y="615.769">A</text>
      <text x="1101.419" y="614.051">G</text>
      <text x="1114.409" y="621.551">C</text>
      <text x="1111.572" y="631.367">A</text>
      <text x="1113.004" y="642.497">A</text>
      <text x="1119.225" y="653.029">A</text>
      <text x="1129.889" y="660.884">C</text>
      <text x="1143.758" y="664.203">C</text>
      <text x="1156.574" y="671.998">C</text>
      <text x="1169.390" y="679.792">U</text>
      <text x="1176.784" y="694.430">A</text>
      <text x="1193.171" y="695.075">A</text>
      <text x="1201.692" y="681.064">A</text>
      <text x="1193.583" y="666.810">A</text>
      <text x="1177.185" y="666.977">A</text>
      <text x="1164.369" y="659.182">G</text>
      <text x="1151.553" y="651.387">G</text>
      <text x="1155.239" y="644.856">A</text>
      <text x="1166.298" y="625.261">A</text>
      <text x="1179.595" y="632.203">C</text>
      <text x="1187.928" y="646.328">A</text>
      <text x="1204.321" y="645.903">A</text>
      <text x="1211.911" y="631.366">U</text>
      <text x="1202.890" y="617.671">A</text>
      <text x="1186.537" y="618.907">G</text>
      <text x="1173.241" y="611.964">U</text>
      <text x="1155.368" y="597.947">A</text>
      <text x="1135.416" y="597.895">A</text>
      <text x="1121.909" y="608.561">G</text>
      <text x="1108.919" y="601.061">C</text>
      <text x="1112.127" y="594.281">A</text>
      <text x="1125.686" y="600.698">C</text>
      <text x="1139.244" y="607.115">A</text>
      <text x="1145.660" y="593.556">A</text>
      <text x="1132.102" y="587.140">U</text>
      <text x="1118.544" y="580.723">C</text>
      <text x="1121.753" y="573.944">A</text>
      <text x="1135.789" y="579.235">U</text>
      <text x="1143.686" y="593.200">A</text>
      <text x="1159.550" y="595.590">A</text>
      <text x="1171.211" y="584.573">C</text>
      <text x="1169.724" y="568.599">A</text>
      <text x="1156.230" y="559.922">C</text>
      <text x="1141.079" y="565.199">A</text>
      <text x="1127.044" y="559.908">U</text>
      <text x="1119.892" y="547.846">A</text>
      <text x="1109.694" y="538.902">A</text>
      <text x="1097.644" y="533.749">A</text>
      <text x="1085.047" y="532.639">A</text>
      <text x="1073.176" y="535.400">A</text>
      <text x="1063.148" y="541.485">C</text>
      <text x="1055.817" y="550.045">G</text>
      <text x="1047.950" y="537.398">U</text>
      <text x="1032.143" y="538.075">U</text>
      <text x="1027.649" y="532.329">A</text>
      <text x="1018.702" y="531.307">G</text>
      <text x="1005.294" y="524.582">G</text>
      <text x="991.886" y="517.857">U</text>
      <text x="990.437" y="514.774">C</text>
      <text x="987.487" y="512.199">A</text>
      <text x="983.274" y="510.803">A</text>
      <text x="978.314" y="511.133">G</text>
      <text x="964.840" y="504.540">G</text>
      <text x="951.367" y="497.947">U</text>
      <text x="937.894" y="491.354">G</text>
      <text x="924.442" y="484.717">U</text>
      <text x="911.012" y="478.036">A</text>
      <text x="897.593" y="471.333">G</text>
      <text x="884.185" y="464.608">C</text>
      <text x="884.252" y="443.687">U</text>
      <text x="873.397" y="425.712">U</text>
      <text x="854.713" y="415.959">A</text>
      <text x="833.604" y="417.341">U</text>
      <text x="816.224" y="429.537">G</text>
      <text x="802.973" y="422.508">G</text>
      <text x="789.722" y="415.479">G</text>
      <text x="776.471" y="408.450">U</text>
      <text x="763.220" y="401.421">U</text>
      <text x="749.968" y="394.392">G</text>
      <text x="736.717" y="387.362">G</text>
      <text x="721.118" y="367.521">A</text>
      <text x="699.152" y="363.587">A</text>
      <text x="682.676" y="373.837">A</text>
      <text x="670.042" y="365.752">G</text>
      <text x="666.151" y="359.581">A</text>
      <text x="657.353" y="357.661">A</text>
      <text x="644.693" y="349.617">A</text>
      <text x="632.032" y="341.573">U</text>
      <text x="619.371" y="333.529">G</text>
      <text x="606.710" y="325.485">G</text>
      <text x="594.050" y="317.441">G</text>
      <text x="581.389" y="309.397">C</text>
      <text x="568.728" y="301.353">U</text>
      <text x="570.616" y="294.094">A</text>
      <text x="585.133" y="297.870">C</text>
      <text x="599.593" y="293.882">A</text>
      <text x="588.909" y="283.353">U</text>
      <text x="574.392" y="279.577">U</text>
      <text x="576.280" y="272.319">U</text>
      <text x="591.255" y="271.463">U</text>
      <text x="606.231" y="270.607">C</text>
      <text x="621.206" y="269.751">U</text>
      <text x="634.088" y="279.314">A</text>
      <text x="649.559" y="275.065">C</text>
      <text x="655.750" y="260.265">A</text>
      <text x="647.913" y="246.266">U</text>
      <text x="632.059" y="243.808">A</text>
      <text x="620.351" y="254.776">A</text>
      <text x="605.375" y="255.632">G</text>
      <text x="590.399" y="256.487">A</text>
      <text x="575.424" y="257.343">A</text>
      <text x="574.206" y="249.943">U</text>
      <text x="589.007" y="247.507">A</text>
      <text x="603.808" y="245.071">C</text>
      <text x="618.609" y="242.635">C</text>
      <text x="633.410" y="240.199">C</text>
      <text x="648.210" y="237.763">A</text>
      <text x="663.011" y="235.328">C</text>
      <text x="677.812" y="232.891">C</text>
      <text x="675.376" y="218.091">A</text>
      <text x="660.575" y="220.527">U</text>
      <text x="645.775" y="222.963">A</text>
      <text x="630.974" y="225.398">C</text>
      <text x="616.173" y="227.834">G</text>
      <text x="601.372" y="230.270">A</text>
      <text x="586.571" y="232.706">A</text>
      <text x="571.770" y="235.142">A</text>
      <text x="570.552" y="227.742">G</text>
      <text x="585.012" y="223.753">U</text>
      <text x="599.472" y="219.764">U</text>
      <text x="613.932" y="215.776">U</text>
      <text x="628.392" y="211.787">U</text>
      <text x="642.852" y="207.799">U</text>
      <text x="657.312" y="203.810">A</text>
      <text x="670.931" y="211.829">U</text>
      <text x="686.210" y="207.788">G</text>
      <text x="694.084" y="194.085">A</text>
      <text x="689.882" y="178.849">A</text>
      <text x="676.096" y="171.121">A</text>
      <text x="660.906" y="175.484">C</text>
      <text x="653.324" y="189.350">U</text>
      <text x="638.864" y="193.339">A</text>
      <text x="624.404" y="197.327">A</text>
      <text x="609.944" y="201.316">A</text>
      <text x="595.484" y="205.304">A</text>
      <text x="581.024" y="209.293">A</text>
      <text x="566.564" y="213.282">C</text>
      <text x="579.067" y="204.996">C</text>
      <text x="586.044" y="191.717">A</text>
      <text x="585.773" y="176.719">A</text>
      <text x="578.321" y="163.701">A</text>
      <text x="565.526" y="155.872">G</text>
      <text x="550.543" y="155.163">G</text>
      <text x="537.066" y="161.749">A</text>
      <text x="528.419" y="174.005">G</text>
      <text x="526.733" y="188.910">G</text>
      <text x="532.424" y="202.789">A</text>
      <text x="544.089" y="212.218">U</text>
      <text x="530.070" y="206.881">U</text>
      <text x="516.052" y="201.544">U</text>
      <text x="502.033" y="196.208">A</text>
      <text x="488.015" y="190.871">G</text>
      <text x="489.216" y="184.425">C</text>
      <text x="489.710" y="177.887">A</text>
      <text x="489.490" y="171.334">G</text>
      <text x="488.558" y="164.844">U</text>
      <text x="486.926" y="158.494">A</text>
      <text x="484.613" y="152.358">A</text>
      <text x="497.480" y="144.648">A</text>
      <text x="510.346" y="136.937">U</text>
      <text x="523.212" y="129.226">C</text>
      <text x="536.079" y="121.515">A</text>
      <text x="548.945" y="113.804">A</text>
      <text x="561.811" y="106.093">G</text>
      <text x="575.591" y="113.030">A</text>
      <text x="590.932" y="111.393">A</text>
      <text x="602.937" y="101.704">U</text>
      <text x="607.777" y="87.055">A</text>
      <text x="603.907" y="72.121">G</text>
      <text x="592.562" y="61.667">A</text>
      <text x="577.362" y="59.029">G</text>
      <text x="563.157" y="65.048">U</text>
      <text x="554.480" y="77.804">G</text>
      <text x="554.101" y="93.227">C</text>
      <text x="541.234" y="100.938">U</text>
      <text x="528.368" y="108.649">U</text>
      <text x="515.502" y="116.359">G</text>
      <text x="502.635" y="124.070">A</text>
      <text x="489.769" y="131.781">U</text>
      <text x="476.903" y="139.492">U</text>
      <text x="469.763" y="131.803">G</text>
      <text x="461.392" y="125.467">A</text>
      <text x="452.043" y="120.676">A</text>
      <text x="441.997" y="117.579">U</text>
      <text x="431.559" y="116.272">A</text>
      <text x="421.047" y="116.796">A</text>
      <text x="410.778" y="119.139">G</text>
      <text x="401.065" y="123.232">G</text>
      <text x="392.205" y="128.951">C</text>
      <text x="384.467" y="136.127">C</text>
      <text x="378.088" y="144.542">A</text>
      <text x="373.263" y="153.942">U</text>
      <text x="358.765" y="150.096">G</text>
      <text x="344.266" y="146.249">A</text>
      <text x="329.768" y="142.402">A</text>
      <text x="315.270" y="138.555">G</text>
      <text x="300.771" y="134.708">C</text>
      <text x="286.273" y="130.861">A</text>
      <text x="271.774" y="127.015">C</text>
      <text x="257.282" y="123.144">G</text>
      <text x="242.797" y="119.250">C</text>
      <text x="237.224" y="114.542">A</text>
      <text x="228.257" y="115.367">C</text>
      <text x="213.759" y="111.520">A</text>
      <text x="210.830" y="104.616">C</text>
      <text x="225.397" y="101.041">A</text>
      <text x="239.965" y="97.466">C</text>
      <text x="254.533" y="93.891">C</text>
      <text x="269.459" y="95.378">G</text>
      <text x="281.914" y="87.018">C</text>
      <text x="286.191" y="72.641">C</text>
      <text x="280.333" y="58.833">C</text>
      <text x="267.021" y="51.918">G</text>
      <text x="252.355" y="55.065">U</text>
      <text x="243.053" y="66.832">C</text>
      <text x="230.359" y="74.824">A</text>
      <text x="217.665" y="82.816">C</text>
      <text x="204.971" y="90.807">C</text>
      <text x="202.042" y="83.903">C</text>
      <text x="209.350" y="70.804">U</text>
      <text x="216.659" y="57.705">C</text>
      <text x="230.139" y="49.423">C</text>
      <text x="229.584" y="34.539">U</text>
      <text x="236.892" y="21.440">C</text>
      <text x="250.808" y="27.092">A</text>
      <text x="265.312" y="30.991">A</text>
      <text x="280.186" y="33.077">G</text>
      <text x="295.203" y="33.321">C</text>
      <text x="310.136" y="31.716">A</text>
      <text x="324.759" y="28.289">U</text>
      <text x="338.850" y="23.091">G</text>
      <text x="352.196" y="16.200">U</text>
      <text x="364.593" y="7.722">A</text>
      <text x="375.855" y="-2.216">G</text>
      <text x="385.810" y="-13.462">U</text>
      <text x="394.307" y="-25.847">A</text>
      <text x="401.218" y="-39.182">A</text>
      <text x="406.438" y="-53.265">U</text>
      <text x="409.888" y="-67.882">A</text>
      <text x="411.515" y="-82.813">A</text>
      <text x="411.295" y="-97.831">A</text>
      <text x="409.231" y="-112.708">A</text>
      <text x="405.354" y="-127.218">A</text>
      <text x="399.724" y="-141.142">U</text>
      <text x="392.425" y="-154.269">A</text>
      <text x="383.568" y="-166.399">A</text>
      <text x="373.288" y="-177.349">C</text>
      <text x="361.740" y="-186.952">C</text>
      <text x="349.100" y="-195.064">U</text>
      <text x="335.558" y="-201.560">A</text>
      <text x="321.321" y="-206.343">U</text>
      <text x="306.604" y="-209.341">A</text>
      <text x="291.630" y="-210.507">U</text>
      <text x="276.626" y="-209.823">U</text>
      <text x="261.820" y="-207.302">C</text>
      <text x="247.436" y="-202.980">A</text>
      <text x="233.692" y="-196.923">A</text>
      <text x="220.797" y="-189.222">U</text>
      <text x="208.946" y="-179.996">U</text>
      <text x="198.318" y="-169.383">A</text>
      <text x="189.075" y="-157.544">C</text>
      <text x="181.357" y="-144.660">A</text>
      <text x="175.282" y="-130.924">C</text>
      <text x="170.940" y="-116.546">A</text>
      <text x="168.398" y="-101.744">A</text>
      <text x="167.694" y="-86.741">C</text>
      <text x="168.839" y="-71.765">C</text>
      <text x="171.816" y="-57.044">A</text>
      <text x="176.580" y="-42.800">U</text>
      <text x="183.058" y="-29.250">G</text>
      <text x="191.152" y="-16.598">C</text>
      <text x="200.740" y="-5.037">A</text>
      <text x="211.675" y="5.258">A</text>
      <text x="223.793" y="14.132">G</text>
      <text x="216.485" y="27.231">A</text>
      <text x="203.527" y="34.575">A</text>
      <text x="203.560" y="50.396">G</text>
      <text x="196.251" y="63.496">A</text>
      <text x="188.943" y="76.595">G</text>
      <text x="181.819" y="74.249">A</text>
      <text x="186.510" y="60.001">C</text>
      <text x="191.201" y="45.754">A</text>
      <text x="195.892" y="31.506">A</text>
      <text x="200.583" y="17.259">G</text>
      <text x="205.274" y="3.011">U</text>
      <text x="209.965" y="-11.236">C</text>
      <text x="214.656" y="-25.484">G</text>
      <text x="200.408" y="-30.175">U</text>
      <text x="195.718" y="-15.928">A</text>
      <text x="191.026" y="-1.680">A</text>
      <text x="186.335" y="12.568">C</text>
      <text x="181.644" y="26.815">A</text>
      <text x="176.953" y="41.063">A</text>
      <text x="172.262" y="55.310">G</text>
      <text x="167.571" y="69.558">G</text>
      <text x="160.447" y="67.212">U</text>
      <text x="162.351" y="52.334">A</text>
      <text x="164.254" y="37.455">A</text>
      <text x="166.157" y="22.576">G</text>
      <text x="168.061" y="7.697">C</text>
      <text x="169.964" y="-7.181">A</text>
      <text x="171.867" y="-22.060">U</text>
      <text x="173.770" y="-36.939">A</text>
      <text x="175.674" y="-51.818">C</text>
      <text x="177.577" y="-66.696">U</text>
      <text x="187.937" y="-79.408">G</text>
      <text x="181.857" y="-94.638">G</text>
      <text x="165.590" y="-96.719">A</text>
      <text x="155.871" y="-83.510">A</text>
      <text x="162.698" y="-68.600">A</text>
      <text x="160.795" y="-53.721">G</text>
      <text x="158.892" y="-38.842">U</text>
      <text x="156.988" y="-23.963">G</text>
      <text x="155.085" y="-9.085">U</text>
      <text x="153.182" y="5.794">G</text>
      <text x="151.279" y="20.673">C</text>
      <text x="149.375" y="35.552">U</text>
      <text x="147.472" y="50.430">U</text>
      <text x="145.569" y="65.309">G</text>
      <text x="138.071" y="65.126">G</text>
      <text x="138.438" y="50.130">A</text>
      <text x="138.805" y="35.135">U</text>
      <text x="139.172" y="20.139">U</text>
      <text x="139.539" y="5.144">A</text>
      <text x="132.359" y="-8.026">C</text>
      <text x="124.543" y="4.777">C</text>
    </g>
  </g>
</svg>
