<?xml version="1.0" encoding="UTF-8" standalone="yes"?>
<svg xmlns="http://www.w3.org/2000/svg" height="452" width="452">
<script type="text/ecmascript">
      <![CDATA[
        var shown = 1;
        function click() {
             var seq = document.getElementById("seq");
             if (shown==1) {
               seq.setAttribute("style", "visibility: hidden");
               shown = 0;
             } else {
               seq.setAttribute("style", "visibility: visible");
               shown = 1;
             }
         }
        ]]>
</script>
  <rect style="stroke: white; fill: white" height="452" x="0" y="0" width="452" onclick="click(evt)" />
  <g transform="scale(1.586146,1.586146) translate(48.612968,39.043907)">
    <polyline style="stroke: black; fill: none; stroke-width: 1.5" id="outline" points="
      109.220,-15.566
      108.556,-0.580
      107.893,14.405
      99.600,26.778
      106.719,40.906
      106.056,55.892
      105.392,70.877
      88.150,74.420
      75.456,85.263
      69.909,100.044
      54.913,100.376
      39.917,100.707
      24.920,101.039
      16.380,88.191
      2.240,82.021
      -12.987,84.498
      -24.443,94.830
      -28.472,109.722
      -23.788,124.422
      -11.886,134.238
      3.436,136.038
      17.289,129.249
      25.252,116.036
      40.249,115.704
      55.245,115.372
      70.241,115.040
      78.917,129.411
      93.831,137.114
      94.495,152.100
      95.158,167.085
      95.822,182.070
      96.485,197.055
      84.841,207.493
      82.681,222.981
      91.026,236.206
      105.935,240.924
      120.369,234.907
      127.512,220.996
      123.992,205.760
      111.471,196.392
      110.807,181.407
      110.144,166.421
      109.480,151.436
      108.817,136.451
      118.225,133.142
      126.387,126.823
      132.338,117.967
      135.292,107.352
      134.740,95.999
      149.444,93.032
      164.147,90.064
      178.851,87.097
      191.876,96.049
      207.400,93.087
      216.213,79.968
      213.087,64.476
      199.876,55.802
      184.418,59.092
      175.884,72.394
      161.180,75.361
      146.477,78.328
      131.773,81.295
      120.378,71.541
      121.041,56.555
      121.705,41.570
      130.045,28.126
      122.878,15.068
      123.542,0.083
      124.205,-14.902
      127.246,-34.044
    " />
    <g style="stroke: black; stroke-width: 1" id="pairs">
      <line id="1,69" x1="109.220" y1="-15.566" x2="124.205" y2="-14.902" />
      <line id="2,68" x1="108.556" y1="-0.580" x2="123.542" y2=" 0.083" />
      <line id="3,67" x1="107.893" y1="14.405" x2="122.878" y2="15.068" />
      <line id="5,65" x1="106.719" y1="40.906" x2="121.705" y2="41.570" />
      <line id="6,64" x1="106.056" y1="55.892" x2="121.041" y2="56.555" />
      <line id="7,63" x1="105.392" y1="70.877" x2="120.378" y2="71.541" />
      <line id="10,26" x1="69.909" y1="100.044" x2="70.241" y2="115.040" />
      <line id="11,25" x1="54.913" y1="100.376" x2="55.245" y2="115.372" />
      <line id="12,24" x1="39.917" y1="100.707" x2="40.249" y2="115.704" />
      <line id="13,23" x1="24.920" y1="101.039" x2="25.252" y2="116.036" />
      <line id="28,44" x1="93.831" y1="137.114" x2="108.817" y2="136.451" />
      <line id="29,43" x1="94.495" y1="152.100" x2="109.480" y2="151.436" />
      <line id="30,42" x1="95.158" y1="167.085" x2="110.144" y2="166.421" />
      <line id="31,41" x1="95.822" y1="182.070" x2="110.807" y2="181.407" />
      <line id="32,40" x1="96.485" y1="197.055" x2="111.471" y2="196.392" />
      <line id="49,62" x1="134.740" y1="95.999" x2="131.773" y2="81.295" />
      <line id="50,61" x1="149.444" y1="93.032" x2="146.477" y2="78.328" />
      <line id="51,60" x1="164.147" y1="90.064" x2="161.180" y2="75.361" />
      <line id="52,59" x1="178.851" y1="87.097" x2="175.884" y2="72.394" />
    </g>
    <g style="font-family: SansSerif" transform="translate(-4.6, 4)" id="seq">
      <text x="109.220" y="-15.566">G</text>
      <text x="108.556" y="-0.580">U</text>
      <text x="107.893" y="14.405">U</text>
      <text x="99.600" y="26.778">A</text>
      <text x="106.719" y="40.906">A</text>
      <text x="106.056" y="55.892">U</text>
      <text x="105.392" y="70.877">G</text>
      <text x="88.150" y="74.420">U</text>
      <text x="75.456" y="85.263">A</text>
      <text x="69.909" y="100.044">G</text>
      <text x="54.913" y="100.376">C</text>
      <text x="39.917" y="100.707">U</text>
      <text x="24.920" y="101.039">U</text>
      <text x="16.380" y="88.191">A</text>
      <text x="2.240" y="82.021">A</text>
      <text x="-12.987" y="84.498">A</text>
      <text x="-24.443" y="94.830">U</text>
      <text x="-28.472" y="109.722">U</text>
      <text x="-23.788" y="124.422">A</text>
      <text x="-11.886" y="134.238">U</text>
      <text x="3.436" y="136.038">C</text>
      <text x="17.289" y="129.249">A</text>
      <text x="25.252" y="116.036">A</text>
      <text x="40.249" y="115.704">A</text>
      <text x="55.245" y="115.372">G</text>
      <text x="70.241" y="115.040">C</text>
      <text x="78.917" y="129.411">A</text>
      <text x="93.831" y="137.114">A</text>
      <text x="94.495" y="152.100">G</text>
      <text x="95.158" y="167.085">G</text>
      <text x="95.822" y="182.070">C</text>
      <text x="96.485" y="197.055">A</text>
      <text x="84.841" y="207.493">C</text>
      <text x="82.681" y="222.981">U</text>
      <text x="91.026" y="236.206">G</text>
      <text x="105.935" y="240.924">A</text>
      <text x="120.369" y="234.907">A</text>
      <text x="127.512" y="220.996">A</text>
      <text x="123.992" y="205.760">A</text>
      <text x="111.471" y="196.392">U</text>
      <text x="110.807" y="181.407">G</text>
      <text x="110.144" y="166.421">C</text>
      <text x="109.480" y="151.436">C</text>
      <text x="108.817" y="136.451">U</text>
      <text x="118.225" y="133.142">A</text>
      <text x="126.387" y="126.823">G</text>
      <text x="132.338" y="117.967">A</text>
      <text x="135.292" y="107.352">U</text>
      <text x="134.740" y="95.999">G</text>
      <text x="149.444" y="93.032">G</text>
      <text x="164.147" y="90.064">G</text>
      <text x="178.851" y="87.097">C</text>
      <text x="191.876" y="96.049">C</text>
      <text x="207.400" y="93.087">U</text>
      <text x="216.213" y="79.968">C</text>
      <text x="213.087" y="64.476">A</text>
      <text x="199.876" y="55.802">C</text>
      <text x="184.418" y="59.092">A</text>
      <text x="175.884" y="72.394">G</text>
      <text x="161.180" y="75.361">C</text>
      <text x="146.477" y="78.328">C</text>
      <text x="131.773" y="81.295">C</text>
      <text x="120.378" y="71.541">C</text>
      <text x="121.041" y="56.555">A</text>
      <text x="121.705" y="41.570">U</text>
      <text x="130.045" y="28.126">A</text>
      <text x="122.878" y="15.068">A</text>
      <text x="123.542" y="0.083">A</text>
      <text x="124.205" y="-14.902">C</text>
      <text x="127.246" y="-34.044">A</text>
    </g>
  </g>
</svg>
