<?xml version="1.0" encoding="UTF-8" standalone="yes"?>
<svg xmlns="http://www.w3.org/2000/svg" height="452" width="452">
<script type="text/ecmascript">
      <![CDATA[
        var shown = 1;
        function click() {
             var seq = document.getElementById("seq");
             if (shown==1) {
               seq.setAttribute("style", "visibility: hidden");
               shown = 0;
             } else {
               seq.setAttribute("style", "visibility: visible");
               shown = 1;
             }
         }
        ]]>
</script>
  <rect style="stroke: white; fill: white" height="452" x="0" y="0" width="452" onclick="click(evt)" />
  <g transform="scale(1.579743,1.579743) translate(31.027924,36.258240)">
    <polyline style="stroke: black; fill: none; stroke-width: 1.5" id="outline" points="
      111.486,-12.728
      110.866,2.260
      110.246,17.247
      109.626,32.234
      109.006,47.221
      108.386,62.208
      107.766,77.195
      90.756,79.328
      77.301,88.596
      70.009,102.310
      55.124,100.454
      40.239,98.599
      34.338,84.419
      22.128,75.102
      6.893,73.154
      -7.269,79.100
      -16.547,91.340
      -18.447,106.581
      -12.457,120.723
      -0.189,129.963
      15.058,131.815
      29.182,125.781
      38.384,113.484
      53.268,115.339
      68.153,117.194
      73.538,131.686
      85.081,141.970
      81.398,156.511
      77.716,171.052
      74.034,185.593
      70.351,200.134
      56.194,206.774
      49.663,220.982
      53.844,236.051
      66.761,244.864
      82.316,243.261
      93.164,231.999
      94.184,216.394
      84.892,203.816
      88.575,189.275
      92.257,174.734
      95.939,160.193
      99.622,145.652
      108.306,145.325
      116.777,142.635
      124.390,137.679
      130.538,130.725
      134.699,122.208
      136.478,112.697
      135.645,102.859
      150.530,101.004
      165.415,99.149
      180.299,97.293
      195.184,95.438
      205.689,106.858
      220.907,109.890
      234.986,103.368
      242.514,89.799
      240.594,74.401
      229.966,63.095
      214.716,60.228
      200.708,66.903
      193.329,80.553
      178.444,82.408
      163.559,84.264
      148.674,86.119
      133.790,87.975
      122.754,77.815
      123.374,62.828
      123.993,47.841
      124.613,32.854
      125.233,17.867
      125.853,2.879
      126.473,-12.108
      129.458,-31.258
    " />
    <g style="stroke: black; stroke-width: 1" id="pairs">
      <line id="1,74" x1="111.486" y1="-12.728" x2="126.473" y2="-12.108" />
      <line id="2,73" x1="110.866" y1=" 2.260" x2="125.853" y2=" 2.879" />
      <line id="3,72" x1="110.246" y1="17.247" x2="125.233" y2="17.867" />
      <line id="4,71" x1="109.626" y1="32.234" x2="124.613" y2="32.854" />
      <line id="5,70" x1="109.006" y1="47.221" x2="123.993" y2="47.841" />
      <line id="6,69" x1="108.386" y1="62.208" x2="123.374" y2="62.828" />
      <line id="7,68" x1="107.766" y1="77.195" x2="122.754" y2="77.815" />
      <line id="10,25" x1="70.009" y1="102.310" x2="68.153" y2="117.194" />
      <line id="11,24" x1="55.124" y1="100.454" x2="53.268" y2="115.339" />
      <line id="12,23" x1="40.239" y1="98.599" x2="38.384" y2="113.484" />
      <line id="27,43" x1="85.081" y1="141.970" x2="99.622" y2="145.652" />
      <line id="28,42" x1="81.398" y1="156.511" x2="95.939" y2="160.193" />
      <line id="29,41" x1="77.716" y1="171.052" x2="92.257" y2="174.734" />
      <line id="30,40" x1="74.034" y1="185.593" x2="88.575" y2="189.275" />
      <line id="31,39" x1="70.351" y1="200.134" x2="84.892" y2="203.816" />
      <line id="50,67" x1="135.645" y1="102.859" x2="133.790" y2="87.975" />
      <line id="51,66" x1="150.530" y1="101.004" x2="148.674" y2="86.119" />
      <line id="52,65" x1="165.415" y1="99.149" x2="163.559" y2="84.264" />
      <line id="53,64" x1="180.299" y1="97.293" x2="178.444" y2="82.408" />
      <line id="54,63" x1="195.184" y1="95.438" x2="193.329" y2="80.553" />
    </g>
    <g style="font-family: SansSerif" transform="translate(-4.6, 4)" id="seq">
      <text x="111.486" y="-12.728">U</text>
      <text x="110.866" y="2.260">A</text>
      <text x="110.246" y="17.247">G</text>
      <text x="109.626" y="32.234">A</text>
      <text x="109.006" y="47.221">U</text>
      <text x="108.386" y="62.208">U</text>
      <text x="107.766" y="77.195">G</text>
      <text x="90.756" y="79.328">A</text>
      <text x="77.301" y="88.596">A</text>
      <text x="70.009" y="102.310">G</text>
      <text x="55.124" y="100.454">C</text>
      <text x="40.239" y="98.599">C</text>
      <text x="34.338" y="84.419">A</text>
      <text x="22.128" y="75.102">G</text>
      <text x="6.893" y="73.154">U</text>
      <text x="-7.269" y="79.100">U</text>
      <text x="-16.547" y="91.340">G</text>
      <text x="-18.447" y="106.581">A</text>
      <text x="-12.457" y="120.723">U</text>
      <text x="-0.189" y="129.963">U</text>
      <text x="15.058" y="131.815">A</text>
      <text x="29.182" y="125.781">G</text>
      <text x="38.384" y="113.484">G</text>
      <text x="53.268" y="115.339">G</text>
      <text x="68.153" y="117.194">U</text>
      <text x="73.538" y="131.686">G</text>
      <text x="85.081" y="141.970">U</text>
      <text x="81.398" y="156.511">U</text>
      <text x="77.716" y="171.052">U</text>
      <text x="74.034" y="185.593">A</text>
      <text x="70.351" y="200.134">G</text>
      <text x="56.194" y="206.774">C</text>
      <text x="49.663" y="220.982">U</text>
      <text x="53.844" y="236.051">G</text>
      <text x="66.761" y="244.864">U</text>
      <text x="82.316" y="243.261">U</text>
      <text x="93.164" y="231.999">A</text>
      <text x="94.184" y="216.394">A</text>
      <text x="84.892" y="203.816">C</text>
      <text x="88.575" y="189.275">U</text>
      <text x="92.257" y="174.734">A</text>
      <text x="95.939" y="160.193">A</text>
      <text x="99.622" y="145.652">A</text>
      <text x="108.306" y="145.325">A</text>
      <text x="116.777" y="142.635">G</text>
      <text x="124.390" y="137.679">U</text>
      <text x="130.538" y="130.725">U</text>
      <text x="134.699" y="122.208">U</text>
      <text x="136.478" y="112.697">C</text>
      <text x="135.645" y="102.859">G</text>
      <text x="150.530" y="101.004">U</text>
      <text x="165.415" y="99.149">G</text>
      <text x="180.299" y="97.293">G</text>
      <text x="195.184" y="95.438">G</text>
      <text x="205.689" y="106.858">U</text>
      <text x="220.907" y="109.890">A</text>
      <text x="234.986" y="103.368">U</text>
      <text x="242.514" y="89.799">G</text>
      <text x="240.594" y="74.401">U</text>
      <text x="229.966" y="63.095">A</text>
      <text x="214.716" y="60.228">A</text>
      <text x="200.708" y="66.903">U</text>
      <text x="193.329" y="80.553">C</text>
      <text x="178.444" y="82.408">C</text>
      <text x="163.559" y="84.264">C</text>
      <text x="148.674" y="86.119">A</text>
      <text x="133.790" y="87.975">C</text>
      <text x="122.754" y="77.815">C</text>
      <text x="123.374" y="62.828">A</text>
      <text x="123.993" y="47.841">A</text>
      <text x="124.613" y="32.854">U</text>
      <text x="125.233" y="17.867">C</text>
      <text x="125.853" y="2.879">U</text>
      <text x="126.473" y="-12.108">A</text>
      <text x="129.458" y="-31.258">G</text>
    </g>
  </g>
</svg>
