<?xml version="1.0" encoding="UTF-8" standalone="yes"?>
<svg xmlns="http://www.w3.org/2000/svg" height="452" width="452">
<script type="text/ecmascript">
      <![CDATA[
        var shown = 1;
        function click() {
             var seq = document.getElementById("seq");
             if (shown==1) {
               seq.setAttribute("style", "visibility: hidden");
               shown = 0;
             } else {
               seq.setAttribute("style", "visibility: visible");
               shown = 1;
             }
         }
        ]]>
</script>
  <rect style="stroke: white; fill: white" height="452" x="0" y="0" width="452" onclick="click(evt)" />
  <g transform="scale(1.573025,1.573025) translate(42.064476,38.453003)">
    <polyline style="stroke: black; fill: none; stroke-width: 1.5" id="outline" points="
      110.855,-15.035
      110.141,-0.052
      109.428,14.931
      108.714,29.914
      108.000,44.897
      107.287,59.880
      106.573,74.863
      89.719,77.645
      76.867,87.530
      70.574,101.528
      55.591,100.814
      40.608,100.101
      25.625,99.387
      13.813,88.531
      -2.017,91.140
      -9.721,105.212
      -3.389,119.953
      12.121,124.054
      24.911,114.370
      39.894,115.084
      54.877,115.798
      69.860,116.511
      76.764,130.573
      89.700,139.407
      88.274,154.339
      86.848,169.272
      85.422,184.204
      83.996,199.136
      71.014,207.854
      66.723,222.891
      73.148,237.147
      87.257,243.891
      102.387,239.939
      111.394,227.156
      110.026,211.579
      98.928,200.562
      100.354,185.629
      101.780,170.697
      103.206,155.765
      104.632,140.833
      115.001,138.514
      124.296,132.649
      131.306,123.715
      135.025,112.599
      134.790,100.514
      149.637,98.379
      164.484,96.244
      179.332,94.110
      192.985,102.534
      208.035,96.977
      212.936,81.701
      203.930,68.425
      187.924,67.332
      177.197,79.262
      162.350,81.397
      147.502,83.532
      132.655,85.666
      121.556,75.576
      122.270,60.593
      122.983,45.610
      123.697,30.627
      124.411,15.644
      125.125,0.661
      125.838,-14.322
      128.943,-33.453
    " />
    <g style="stroke: black; stroke-width: 1" id="pairs">
      <line id="1,64" x1="110.855" y1="-15.035" x2="125.838" y2="-14.322" />
      <line id="2,63" x1="110.141" y1="-0.052" x2="125.125" y2=" 0.661" />
      <line id="3,62" x1="109.428" y1="14.931" x2="124.411" y2="15.644" />
      <line id="4,61" x1="108.714" y1="29.914" x2="123.697" y2="30.627" />
      <line id="5,60" x1="108.000" y1="44.897" x2="122.983" y2="45.610" />
      <line id="6,59" x1="107.287" y1="59.880" x2="122.270" y2="60.593" />
      <line id="7,58" x1="106.573" y1="74.863" x2="121.556" y2="75.576" />
      <line id="10,22" x1="70.574" y1="101.528" x2="69.860" y2="116.511" />
      <line id="11,21" x1="55.591" y1="100.814" x2="54.877" y2="115.798" />
      <line id="12,20" x1="40.608" y1="100.101" x2="39.894" y2="115.084" />
      <line id="13,19" x1="25.625" y1="99.387" x2="24.911" y2="114.370" />
      <line id="24,40" x1="89.700" y1="139.407" x2="104.632" y2="140.833" />
      <line id="25,39" x1="88.274" y1="154.339" x2="103.206" y2="155.765" />
      <line id="26,38" x1="86.848" y1="169.272" x2="101.780" y2="170.697" />
      <line id="27,37" x1="85.422" y1="184.204" x2="100.354" y2="185.629" />
      <line id="28,36" x1="83.996" y1="199.136" x2="98.928" y2="200.562" />
      <line id="45,57" x1="134.790" y1="100.514" x2="132.655" y2="85.666" />
      <line id="46,56" x1="149.637" y1="98.379" x2="147.502" y2="83.532" />
      <line id="47,55" x1="164.484" y1="96.244" x2="162.350" y2="81.397" />
      <line id="48,54" x1="179.332" y1="94.110" x2="177.197" y2="79.262" />
    </g>
    <g style="font-family: SansSerif" transform="translate(-4.6, 4)" id="seq">
      <text x="110.855" y="-15.035">C</text>
      <text x="110.141" y="-0.052">A</text>
      <text x="109.428" y="14.931">G</text>
      <text x="108.714" y="29.914">G</text>
      <text x="108.000" y="44.897">G</text>
      <text x="107.287" y="59.880">A</text>
      <text x="106.573" y="74.863">A</text>
      <text x="89.719" y="77.645">U</text>
      <text x="76.867" y="87.530">A</text>
      <text x="70.574" y="101.528">G</text>
      <text x="55.591" y="100.814">U</text>
      <text x="40.608" y="100.101">U</text>
      <text x="25.625" y="99.387">U</text>
      <text x="13.813" y="88.531">A</text>
      <text x="-2.017" y="91.140">G</text>
      <text x="-9.721" y="105.212">U</text>
      <text x="-3.389" y="119.953">U</text>
      <text x="12.121" y="124.054">A</text>
      <text x="24.911" y="114.370">G</text>
      <text x="39.894" y="115.084">A</text>
      <text x="54.877" y="115.798">A</text>
      <text x="69.860" y="116.511">U</text>
      <text x="76.764" y="130.573">U</text>
      <text x="89.700" y="139.407">U</text>
      <text x="88.274" y="154.339">C</text>
      <text x="86.848" y="169.272">A</text>
      <text x="85.422" y="184.204">G</text>
      <text x="83.996" y="199.136">C</text>
      <text x="71.014" y="207.854">U</text>
      <text x="66.723" y="222.891">U</text>
      <text x="73.148" y="237.147">U</text>
      <text x="87.257" y="243.891">G</text>
      <text x="102.387" y="239.939">G</text>
      <text x="111.394" y="227.156">G</text>
      <text x="110.026" y="211.579">U</text>
      <text x="98.928" y="200.562">G</text>
      <text x="100.354" y="185.629">C</text>
      <text x="101.780" y="170.697">U</text>
      <text x="103.206" y="155.765">G</text>
      <text x="104.632" y="140.833">A</text>
      <text x="115.001" y="138.514">U</text>
      <text x="124.296" y="132.649">G</text>
      <text x="131.306" y="123.715">G</text>
      <text x="135.025" y="112.599">C</text>
      <text x="134.790" y="100.514">G</text>
      <text x="149.637" y="98.379">G</text>
      <text x="164.484" y="96.244">A</text>
      <text x="179.332" y="94.110">G</text>
      <text x="192.985" y="102.534">U</text>
      <text x="208.035" y="96.977">U</text>
      <text x="212.936" y="81.701">A</text>
      <text x="203.930" y="68.425">G</text>
      <text x="187.924" y="67.332">U</text>
      <text x="177.197" y="79.262">C</text>
      <text x="162.350" y="81.397">U</text>
      <text x="147.502" y="83.532">C</text>
      <text x="132.655" y="85.666">C</text>
      <text x="121.556" y="75.576">U</text>
      <text x="122.270" y="60.593">U</text>
      <text x="122.983" y="45.610">C</text>
      <text x="123.697" y="30.627">C</text>
      <text x="124.411" y="15.644">U</text>
      <text x="125.125" y="0.661">U</text>
      <text x="125.838" y="-14.322">G</text>
      <text x="128.943" y="-33.453">A</text>
    </g>
  </g>
</svg>
