<?xml version="1.0" encoding="UTF-8" standalone="yes"?>
<svg xmlns="http://www.w3.org/2000/svg" height="452" width="452">
<script type="text/ecmascript">
      <![CDATA[
        var shown = 1;
        function click() {
             var seq = document.getElementById("seq");
             if (shown==1) {
               seq.setAttribute("style", "visibility: hidden");
               shown = 0;
             } else {
               seq.setAttribute("style", "visibility: visible");
               shown = 1;
             }
         }
        ]]>
</script>
  <rect style="stroke: white; fill: white" height="452" x="0" y="0" width="452" onclick="click(evt)" />
  <g transform="scale(1.535766,1.535766) translate(52.268127,44.669281)">
    <polyline style="stroke: black; fill: none; stroke-width: 1.5" id="outline" points="
      97.851,-21.159
      97.215,-6.172
      96.578,8.814
      95.942,23.801
      95.305,38.787
      94.668,53.774
      94.032,68.760
      80.823,73.680
      70.442,83.215
      64.420,95.959
      49.433,95.322
      34.447,94.686
      19.460,94.049
      11.767,80.677
      -1.945,73.607
      -17.301,75.096
      -29.399,84.668
      -34.381,99.269
      -30.656,114.240
      -19.412,124.803
      -4.238,127.589
      10.024,121.707
      18.824,109.036
      33.810,109.672
      48.797,110.309
      63.783,110.945
      72.446,129.227
      89.480,140.143
      88.208,155.089
      86.936,170.035
      85.664,184.981
      84.391,199.927
      71.500,208.777
      67.363,223.858
      73.935,238.048
      88.112,244.646
      103.201,240.539
      112.076,227.664
      110.548,212.101
      99.337,201.199
      100.610,186.253
      101.882,171.307
      103.154,156.361
      104.426,141.415
      112.567,139.464
      120.055,135.719
      126.500,130.375
      131.566,123.710
      134.989,116.070
      136.593,107.852
      151.471,105.947
      166.350,104.042
      181.228,102.137
      192.596,112.874
      208.210,113.741
      220.697,104.327
      224.160,89.078
      216.966,75.193
      202.510,69.230
      187.619,74.003
      179.323,87.258
      164.444,89.163
      149.566,91.069
      134.687,92.974
      124.830,77.944
      109.018,69.397
      109.655,54.410
      110.291,39.424
      110.928,24.437
      111.565,9.451
      112.201,-5.536
      112.838,-20.522
      115.844,-39.669
    " />
    <g style="stroke: black; stroke-width: 1" id="pairs">
      <line id="1,72" x1="97.851" y1="-21.159" x2="112.838" y2="-20.522" />
      <line id="2,71" x1="97.215" y1="-6.172" x2="112.201" y2="-5.536" />
      <line id="3,70" x1="96.578" y1=" 8.814" x2="111.565" y2=" 9.451" />
      <line id="4,69" x1="95.942" y1="23.801" x2="110.928" y2="24.437" />
      <line id="5,68" x1="95.305" y1="38.787" x2="110.291" y2="39.424" />
      <line id="6,67" x1="94.668" y1="53.774" x2="109.655" y2="54.410" />
      <line id="7,66" x1="94.032" y1="68.760" x2="109.018" y2="69.397" />
      <line id="10,26" x1="64.420" y1="95.959" x2="63.783" y2="110.945" />
      <line id="11,25" x1="49.433" y1="95.322" x2="48.797" y2="110.309" />
      <line id="12,24" x1="34.447" y1="94.686" x2="33.810" y2="109.672" />
      <line id="13,23" x1="19.460" y1="94.049" x2="18.824" y2="109.036" />
      <line id="28,44" x1="89.480" y1="140.143" x2="104.426" y2="141.415" />
      <line id="29,43" x1="88.208" y1="155.089" x2="103.154" y2="156.361" />
      <line id="30,42" x1="86.936" y1="170.035" x2="101.882" y2="171.307" />
      <line id="31,41" x1="85.664" y1="184.981" x2="100.610" y2="186.253" />
      <line id="32,40" x1="84.391" y1="199.927" x2="99.337" y2="201.199" />
      <line id="50,64" x1="136.593" y1="107.852" x2="134.687" y2="92.974" />
      <line id="51,63" x1="151.471" y1="105.947" x2="149.566" y2="91.069" />
      <line id="52,62" x1="166.350" y1="104.042" x2="164.444" y2="89.163" />
      <line id="53,61" x1="181.228" y1="102.137" x2="179.323" y2="87.258" />
    </g>
    <g style="font-family: SansSerif" transform="translate(-4.6, 4)" id="seq">
      <text x="97.851" y="-21.159">U</text>
      <text x="97.215" y="-6.172">A</text>
      <text x="96.578" y="8.814">G</text>
      <text x="95.942" y="23.801">A</text>
      <text x="95.305" y="38.787">A</text>
      <text x="94.668" y="53.774">U</text>
      <text x="94.032" y="68.760">G</text>
      <text x="80.823" y="73.680">U</text>
      <text x="70.442" y="83.215">G</text>
      <text x="64.420" y="95.959">G</text>
      <text x="49.433" y="95.322">U</text>
      <text x="34.447" y="94.686">G</text>
      <text x="19.460" y="94.049">U</text>
      <text x="11.767" y="80.677">A</text>
      <text x="-1.945" y="73.607">U</text>
      <text x="-17.301" y="75.096">U</text>
      <text x="-29.399" y="84.668">U</text>
      <text x="-34.381" y="99.269">U</text>
      <text x="-30.656" y="114.240">G</text>
      <text x="-19.412" y="124.803">G</text>
      <text x="-4.238" y="127.589">U</text>
      <text x="10.024" y="121.707">A</text>
      <text x="18.824" y="109.036">G</text>
      <text x="33.810" y="109.672">C</text>
      <text x="48.797" y="110.309">A</text>
      <text x="63.783" y="110.945">C</text>
      <text x="72.446" y="129.227">G</text>
      <text x="89.480" y="140.143">G</text>
      <text x="88.208" y="155.089">A</text>
      <text x="86.936" y="170.035">G</text>
      <text x="85.664" y="184.981">A</text>
      <text x="84.391" y="199.927">A</text>
      <text x="71.500" y="208.777">U</text>
      <text x="67.363" y="223.858">U</text>
      <text x="73.935" y="238.048">U</text>
      <text x="88.112" y="244.646">U</text>
      <text x="103.201" y="240.539">G</text>
      <text x="112.076" y="227.664">A</text>
      <text x="110.548" y="212.101">A</text>
      <text x="99.337" y="201.199">U</text>
      <text x="100.610" y="186.253">U</text>
      <text x="101.882" y="171.307">C</text>
      <text x="103.154" y="156.361">U</text>
      <text x="104.426" y="141.415">C</text>
      <text x="112.567" y="139.464">A</text>
      <text x="120.055" y="135.719">G</text>
      <text x="126.500" y="130.375">G</text>
      <text x="131.566" y="123.710">U</text>
      <text x="134.989" y="116.070">U</text>
      <text x="136.593" y="107.852">U</text>
      <text x="151.471" y="105.947">A</text>
      <text x="166.350" y="104.042">G</text>
      <text x="181.228" y="102.137">G</text>
      <text x="192.596" y="112.874">U</text>
      <text x="208.210" y="113.741">U</text>
      <text x="220.697" y="104.327">C</text>
      <text x="224.160" y="89.078">G</text>
      <text x="216.966" y="75.193">A</text>
      <text x="202.510" y="69.230">G</text>
      <text x="187.619" y="74.003">U</text>
      <text x="179.323" y="87.258">C</text>
      <text x="164.444" y="89.163">C</text>
      <text x="149.566" y="91.069">U</text>
      <text x="134.687" y="92.974">A</text>
      <text x="124.830" y="77.944">U</text>
      <text x="109.018" y="69.397">U</text>
      <text x="109.655" y="54.410">G</text>
      <text x="110.291" y="39.424">U</text>
      <text x="110.928" y="24.437">U</text>
      <text x="111.565" y="9.451">C</text>
      <text x="112.201" y="-5.536">U</text>
      <text x="112.838" y="-20.522">A</text>
      <text x="115.844" y="-39.669">G</text>
    </g>
  </g>
</svg>
